{"glyphs":{"0":{"ha":486,"x_min":0,"x_max":0,"o":"m 399 497 b 329 622 386 544 362 586 b 245 666 306 646 277 660 b 180 650 221 671 200 665 b 147 615 168 640 157 629 b 116 562 135 599 125 581 b 77 192 70 463 60 299 b 111 95 82 158 94 125 b 198 14 132 60 160 32 b 357 54 259 -14 316 0 b 398 140 376 80 390 109 b 417 349 412 188 415 297 b 399 497 416 397 413 448 z m 323 166 b 292 101 317 142 308 120 b 232 86 275 79 258 75 b 182 132 210 96 194 112 b 158 196 170 152 162 174 b 192 535 141 293 148 446 b 218 576 199 550 207 564 b 248 582 227 587 235 588 b 277 559 260 577 269 569 b 329 445 307 526 322 487 b 337 352 335 413 338 381 b 323 166 337 307 333 206 z "},"1":{"ha":322,"x_min":0,"x_max":0,"o":"m 160 531 b 164 318 162 474 163 375 b 172 67 167 234 169 150 b 178 26 172 53 173 39 b 215 0 185 9 200 -1 b 248 27 232 2 242 12 b 252 68 253 40 253 54 b 247 171 250 102 248 136 b 240 535 245 279 243 428 b 234 614 239 562 237 588 b 227 641 233 623 231 633 b 167 667 216 665 193 675 b 149 658 161 665 154 662 b 88 613 128 643 108 628 b 72 591 80 607 75 600 b 97 543 64 570 76 548 b 131 547 109 540 120 542 b 155 558 139 551 145 559 b 160 531 161 549 160 540 z "},"2":{"ha":518,"x_min":0,"x_max":0,"o":"m 202 106 b 269 197 224 136 247 166 b 356 386 303 248 333 329 b 380 520 373 429 382 474 b 355 612 379 553 372 584 b 255 669 332 650 299 668 b 211 662 240 669 225 665 b 85 577 160 648 116 622 b 70 543 78 566 72 556 b 91 500 67 523 75 507 b 138 512 107 492 125 497 b 153 534 143 519 147 527 b 253 588 178 567 213 584 b 289 567 270 589 282 582 b 300 523 296 553 299 538 b 274 396 302 479 292 437 b 199 265 253 350 228 307 b 108 115 171 223 139 155 b 75 63 95 99 84 82 b 107 2 64 41 75 10 b 141 0 118 0 129 0 b 323 15 202 3 262 7 b 401 27 349 19 375 23 b 438 44 415 29 428 34 b 433 94 453 59 451 82 b 408 103 426 100 417 103 b 363 101 393 103 378 103 b 291 92 339 99 315 94 b 191 84 259 88 226 84 b 202 106 192 96 198 100 z "},"3":{"ha":463,"x_min":0,"x_max":0,"o":"m 319 304 b 375 398 344 331 363 363 b 332 612 403 481 385 544 b 299 642 323 624 312 633 b 103 596 231 688 143 667 b 77 514 89 570 81 543 b 70 389 72 469 67 435 b 76 355 71 378 72 366 b 126 333 83 334 106 324 b 150 364 140 338 148 350 b 151 395 151 374 151 385 b 157 509 150 437 150 467 b 174 558 160 527 165 543 b 254 576 192 588 225 595 b 280 549 265 569 273 560 b 290 401 312 497 319 457 b 252 349 280 382 268 364 b 185 295 232 328 210 310 b 162 280 177 290 169 286 b 145 235 146 268 140 252 b 185 207 149 221 164 207 b 226 208 198 207 212 208 b 279 197 245 208 263 205 b 302 120 312 182 322 150 b 220 80 283 90 255 77 b 176 88 205 82 190 86 b 142 90 164 89 153 91 b 118 39 116 88 104 61 b 144 17 124 29 134 23 b 197 3 161 9 179 5 b 375 86 289 -12 348 36 b 392 141 385 103 391 122 b 327 262 395 195 372 234 b 298 281 318 268 305 269 b 319 304 305 288 312 296 z "},"4":{"ha":471,"x_min":0,"x_max":0,"o":"m 388 606 b 386 634 387 615 388 625 b 346 666 381 653 365 666 b 310 631 328 665 313 651 b 309 597 309 620 309 608 b 315 359 311 517 313 438 b 315 345 315 355 315 350 b 300 331 314 335 311 331 b 190 327 263 329 226 328 b 179 328 186 327 183 328 b 174 336 175 329 174 333 b 179 348 175 340 177 344 b 248 589 216 425 237 505 b 250 630 250 602 251 616 b 217 665 249 648 235 662 b 178 642 202 667 186 657 b 173 622 176 636 174 629 b 167 585 170 610 168 597 b 85 342 155 499 129 417 b 73 317 81 334 76 326 b 113 247 61 284 78 254 b 141 245 122 245 131 245 b 268 250 183 247 225 248 b 306 251 280 250 293 251 b 317 240 312 251 316 247 b 318 157 317 224 318 173 b 324 47 319 121 319 84 b 337 13 325 35 328 23 b 395 19 355 -6 382 -4 b 402 42 399 26 402 33 b 401 69 402 51 402 60 b 394 345 399 149 396 264 b 388 606 394 432 393 519 z "},"5":{"ha":490,"x_min":0,"x_max":0,"o":"m 149 432 b 148 559 148 474 148 517 b 148 569 148 562 148 566 b 166 585 150 582 153 585 b 214 582 182 584 198 583 b 300 587 243 581 272 587 b 344 597 315 587 330 590 b 365 629 356 603 366 613 b 343 658 364 643 355 651 b 306 665 331 664 319 664 b 124 669 245 668 185 662 b 71 626 97 672 75 652 b 69 605 69 619 69 612 b 72 364 70 525 71 444 b 75 312 72 347 74 330 b 79 292 76 306 77 299 b 147 272 90 263 122 253 b 166 291 154 277 160 284 b 203 332 179 304 190 319 b 243 364 215 344 228 355 b 324 337 280 385 307 376 b 337 295 330 324 334 309 b 312 117 345 243 341 162 b 229 82 292 87 265 75 b 171 91 210 86 191 88 b 137 89 160 93 149 94 b 125 39 115 81 109 57 b 154 21 133 30 143 25 b 227 2 178 12 202 6 b 362 53 282 -6 326 12 b 408 137 384 77 399 105 b 399 364 429 203 424 300 b 378 403 394 378 386 391 b 231 446 343 451 287 467 b 178 416 212 439 194 428 b 154 402 170 410 165 402 b 149 432 147 411 149 422 z "},"6":{"ha":499,"x_min":0,"x_max":0,"o":"m 74 211 b 101 108 78 175 86 141 b 160 37 115 80 133 55 b 269 0 193 16 229 2 b 395 68 324 -2 367 20 b 417 184 416 104 423 143 b 315 292 410 238 367 283 b 182 250 264 300 219 287 b 164 230 176 244 170 236 b 158 227 162 228 160 226 b 152 233 155 227 152 230 b 151 312 148 260 149 286 b 192 522 154 360 166 481 b 239 571 204 541 219 558 b 321 558 271 591 297 587 b 349 475 341 534 349 505 b 349 444 349 464 348 454 b 379 407 350 424 362 411 b 423 433 398 404 416 414 b 430 473 428 445 430 459 b 404 576 429 509 421 544 b 351 638 391 600 374 621 b 244 659 319 661 283 669 b 150 598 206 649 175 627 b 93 501 125 570 107 536 b 69 279 76 454 70 329 b 74 211 71 256 71 233 z m 200 107 b 196 125 194 111 191 117 b 230 183 207 144 218 164 b 281 214 242 202 260 211 b 337 175 309 217 331 202 b 318 98 343 147 336 120 b 269 80 307 83 291 78 b 200 107 246 83 221 91 z "},"7":{"ha":515,"x_min":0,"x_max":0,"o":"m 342 547 b 277 414 321 503 299 459 b 201 153 244 345 215 230 b 189 54 195 121 189 88 b 195 21 190 43 190 31 b 253 16 207 -5 238 -7 b 266 48 260 25 264 36 b 272 92 268 62 270 77 b 284 163 274 116 279 140 b 351 384 299 225 324 327 b 416 517 372 429 395 473 b 440 574 425 536 432 555 b 446 608 445 585 446 596 b 419 652 446 628 436 643 b 392 660 410 656 401 659 b 334 665 373 663 354 665 b 121 665 263 669 192 658 b 100 665 114 666 107 666 b 71 639 85 662 76 653 b 81 601 67 624 71 612 b 109 588 89 594 98 590 b 167 582 128 584 147 582 b 358 584 229 580 291 587 b 342 547 351 568 347 558 z "},"8":{"ha":464,"x_min":0,"x_max":0,"o":"m 298 14 b 392 175 366 40 403 103 b 364 258 387 209 378 226 b 300 368 347 297 326 334 b 300 399 292 379 292 388 b 345 487 318 426 333 456 b 357 562 354 511 358 536 b 244 666 354 624 307 669 b 117 595 190 664 146 641 b 114 462 89 552 88 507 b 151 417 124 445 137 431 b 183 385 162 406 172 396 b 183 369 187 380 187 375 b 145 316 170 352 158 334 b 95 242 127 292 109 268 b 71 138 75 205 65 181 b 197 3 80 75 114 16 b 227 0 207 1 217 1 b 298 14 252 -1 275 5 z m 314 159 b 261 85 315 120 299 96 b 227 80 250 82 239 80 b 149 167 171 81 150 113 b 158 204 149 179 154 192 b 242 308 168 232 216 284 b 314 159 274 280 312 197 z m 189 495 b 194 565 169 520 172 542 b 250 586 210 580 229 587 b 277 560 266 585 275 576 b 277 540 278 553 278 546 b 234 447 269 507 256 477 b 189 495 217 465 201 479 z "},"9":{"ha":471,"x_min":0,"x_max":0,"o":"m 296 320 b 267 88 289 260 275 149 b 265 44 265 73 265 58 b 272 17 265 34 267 25 b 324 11 284 -3 308 -6 b 340 41 333 19 337 30 b 347 82 343 55 345 68 b 392 426 360 180 380 328 b 401 550 397 467 401 508 b 348 639 401 591 382 619 b 225 664 310 661 269 670 b 78 542 152 652 99 613 b 132 350 56 468 77 403 b 170 326 143 340 157 333 b 250 317 195 314 222 309 b 294 330 265 320 279 325 b 296 320 296 324 297 322 z m 307 570 b 321 542 319 564 323 555 b 283 432 315 503 304 466 b 273 419 280 428 276 423 b 180 415 245 387 209 384 b 151 510 155 441 145 474 b 252 586 160 555 203 587 b 307 570 272 586 290 580 z "},"\u0000":{"ha":0,"x_min":0,"x_max":0,"o":""},"\n":{"ha":0,"x_min":0,"x_max":0,"o":""},"\r":{"ha":0,"x_min":0,"x_max":0,"o":""}," ":{"ha":250,"x_min":0,"x_max":0,"o":""},"!":{"ha":229,"x_min":0,"x_max":0,"o":"m 158 218 b 153 373 157 270 155 321 b 155 373 154 373 154 373 b 148 606 153 435 151 544 b 145 633 148 615 147 625 b 107 663 141 651 124 663 b 71 631 90 662 75 649 b 70 604 69 622 69 613 b 79 202 72 486 76 320 b 84 154 79 186 80 170 b 97 130 86 145 90 137 b 148 134 112 116 135 117 b 159 170 156 145 159 157 b 158 218 159 186 159 202 z m 122 68 b 84 33 101 69 85 54 b 120 -5 83 12 98 -4 b 157 32 141 -5 157 11 b 122 68 157 52 142 67 z "},"\"":{"ha":342,"x_min":0,"x_max":0,"o":"m 148 583 b 148 645 148 604 148 625 b 145 669 148 653 147 661 b 110 697 141 686 126 697 b 72 669 93 698 77 687 b 69 652 70 664 69 658 b 70 515 70 607 70 561 b 78 482 70 503 73 492 b 110 459 84 468 95 459 b 141 481 125 459 135 468 b 148 518 147 493 148 506 b 149 583 149 540 149 562 b 148 583 148 583 148 583 z m 272 586 b 271 586 271 586 271 586 b 271 637 271 603 271 620 b 270 661 271 645 271 654 b 233 697 267 681 252 696 b 194 661 214 698 197 683 b 193 654 193 659 193 656 b 195 517 194 608 194 562 b 205 484 195 505 199 494 b 262 484 220 462 248 462 b 271 517 269 494 271 505 b 272 586 272 540 272 563 z "},"#":{"ha":513,"x_min":0,"x_max":0,"o":"m 429 290 b 403 300 421 296 412 298 b 379 302 395 301 387 301 b 367 315 371 302 367 306 b 392 350 367 345 365 345 b 422 365 404 352 414 357 b 421 410 436 378 436 397 b 396 422 414 416 405 419 b 372 431 388 425 377 422 b 371 458 367 440 371 449 b 372 483 371 466 372 475 b 374 483 373 483 373 483 b 374 517 374 494 374 505 b 373 534 374 523 374 529 b 337 570 370 554 355 569 b 298 542 320 571 304 560 b 293 508 295 531 294 520 b 291 443 292 486 292 465 b 271 421 290 425 287 423 b 239 452 240 418 238 419 b 240 500 239 468 239 484 b 240 524 240 508 241 516 b 202 562 237 546 221 561 b 163 528 184 562 167 549 b 160 501 161 520 161 510 b 159 429 160 477 160 453 b 143 412 159 416 156 413 b 119 410 135 411 127 412 b 95 405 111 409 103 408 b 70 372 80 400 71 389 b 94 335 68 355 77 342 b 118 330 102 331 109 330 b 145 331 127 330 136 331 b 159 320 153 331 158 328 b 136 291 162 299 159 295 b 123 289 132 291 127 290 b 96 257 107 284 97 273 b 115 220 94 241 101 228 b 145 212 124 214 134 213 b 161 196 159 211 160 209 b 162 148 162 180 162 164 b 171 100 163 132 165 115 b 204 75 176 86 186 75 b 236 101 218 74 230 84 b 243 138 241 112 243 125 b 242 189 242 155 242 172 b 268 217 241 215 244 217 b 272 217 270 217 271 217 b 286 202 282 216 286 213 b 287 167 287 190 286 179 b 292 109 288 148 290 128 b 307 75 293 96 298 84 b 350 76 319 63 338 64 b 362 101 356 83 360 92 b 367 145 366 115 367 130 b 367 207 367 166 367 186 b 379 221 367 215 371 220 b 406 226 388 222 397 224 b 431 237 415 227 424 231 b 429 290 449 252 448 276 z m 286 314 b 285 305 286 314 286 309 b 276 297 284 300 281 297 b 265 296 272 296 269 296 b 238 322 240 295 237 298 b 254 341 239 335 242 339 b 271 342 259 341 265 342 b 286 329 282 342 285 339 b 286 314 286 325 286 322 z "},"$":{"ha":511,"x_min":0,"x_max":0,"o":"m 441 389 b 367 568 431 455 408 515 b 303 625 349 591 330 613 b 280 665 283 634 278 647 b 279 690 280 673 280 682 b 277 714 279 698 279 706 b 241 745 273 732 258 744 b 203 716 224 745 207 733 b 201 695 201 709 201 702 b 201 661 200 684 200 672 b 186 637 202 649 199 641 b 177 634 183 636 180 635 b 100 407 95 600 46 500 b 159 331 116 378 136 353 b 205 289 174 317 190 303 b 216 269 211 284 215 277 b 223 141 218 226 220 184 b 221 131 223 138 222 134 b 215 129 221 130 216 129 b 201 143 210 134 204 138 b 156 213 186 166 171 190 b 128 252 148 227 139 241 b 90 260 117 262 104 266 b 69 224 76 255 69 242 b 83 182 70 208 76 195 b 126 111 97 158 111 134 b 210 38 146 78 174 52 b 229 9 225 32 229 23 b 238 -35 229 -6 232 -21 b 274 -57 246 -50 259 -59 b 303 -31 289 -55 298 -45 b 307 -4 305 -22 307 -13 b 331 30 305 15 311 25 b 386 74 355 36 374 52 b 398 157 401 100 405 128 b 348 255 390 194 372 226 b 305 303 335 272 320 288 b 292 334 296 312 292 322 b 287 427 290 365 288 396 b 284 427 286 427 285 427 b 284 523 284 459 284 491 b 289 531 285 526 284 531 b 297 527 292 531 295 529 b 306 516 301 524 304 520 b 360 387 335 478 352 434 b 368 354 363 376 364 364 b 403 331 374 339 387 331 b 438 355 420 331 431 340 b 441 389 443 366 443 377 z m 207 411 b 204 406 207 409 205 407 b 198 407 202 406 199 406 b 160 468 181 425 167 444 b 175 535 153 493 159 515 b 196 550 180 542 187 552 b 203 527 208 548 203 536 b 204 473 204 509 204 491 b 207 473 205 473 206 473 b 207 411 207 452 207 432 z m 304 174 b 320 125 318 154 322 140 b 314 113 319 121 316 117 b 311 111 314 112 312 112 b 306 113 309 110 307 110 b 304 174 303 131 301 149 z "},"%":{"ha":585,"x_min":0,"x_max":0,"o":"m 426 574 b 439 613 431 587 436 600 b 413 657 442 633 431 652 b 369 641 397 663 379 657 b 357 616 364 633 361 624 b 297 466 337 566 318 516 b 144 89 253 362 180 196 b 132 32 138 72 133 54 b 133 22 132 31 132 26 b 184 1 137 -6 162 -16 b 206 32 194 9 201 20 b 230 96 214 53 223 74 b 357 402 258 179 324 321 b 426 574 381 459 403 517 z m 270 488 b 262 569 276 516 273 543 b 166 632 243 613 214 632 b 77 568 109 636 90 603 b 69 527 72 555 69 541 b 135 423 70 479 92 444 b 270 488 191 396 256 428 z m 164 553 b 189 535 174 555 184 548 b 193 511 192 527 193 519 b 165 498 191 497 177 490 b 150 527 154 506 150 513 b 164 553 150 541 155 551 z m 412 273 b 383 270 408 273 395 271 b 339 240 363 268 349 257 b 330 134 319 206 316 170 b 423 79 345 94 380 74 b 515 171 471 83 510 122 b 412 273 519 217 480 279 z m 415 159 b 402 179 407 158 401 169 b 422 193 402 188 411 194 b 434 179 428 192 434 185 b 415 159 433 169 425 159 z "},"&":{"ha":333,"x_min":0,"x_max":0,"o":"m 153 414 b 176 419 160 418 168 419 b 216 418 190 418 203 419 b 264 461 243 417 262 438 b 265 485 264 469 265 477 b 262 565 264 512 263 539 b 257 611 261 581 259 596 b 247 640 256 622 252 632 b 197 637 233 660 207 658 b 190 601 191 626 189 614 b 191 533 190 579 191 556 b 193 503 192 523 193 513 b 182 491 193 495 189 492 b 142 486 169 489 155 489 b 70 392 96 475 66 436 b 96 335 72 370 81 351 b 102 308 105 327 107 319 b 91 251 94 290 90 271 b 173 166 92 201 123 169 b 180 165 175 166 177 165 b 183 138 185 155 183 146 b 182 58 183 112 182 85 b 183 37 182 51 182 44 b 215 5 185 18 198 6 b 250 33 232 5 246 16 b 252 52 252 39 252 46 b 255 212 253 105 254 159 b 251 242 255 222 254 233 b 190 262 243 271 213 280 b 173 245 184 257 179 250 b 167 244 172 244 169 243 b 164 248 166 245 164 247 b 183 305 160 270 169 289 b 199 323 188 311 194 316 b 178 376 213 344 203 370 b 163 378 173 377 168 377 b 151 382 159 379 155 380 b 142 400 145 386 141 392 b 153 414 142 407 147 410 z "},"'":{"ha":229,"x_min":0,"x_max":0,"o":"m 159 542 b 150 636 156 572 153 604 b 141 665 149 646 146 656 b 106 683 133 677 121 684 b 72 657 90 682 78 673 b 70 630 69 649 69 640 b 81 517 74 593 78 555 b 92 478 83 503 85 490 b 126 459 100 465 111 457 b 155 485 142 461 151 471 b 159 505 158 491 159 498 b 159 542 159 517 159 528 z "},"(":{"ha":336,"x_min":0,"x_max":0,"o":"m 260 26 b 237 60 253 38 245 49 b 185 157 215 90 198 122 b 165 481 145 263 138 371 b 224 619 177 530 191 579 b 229 628 226 621 228 625 b 220 675 237 645 233 663 b 172 676 207 685 187 686 b 148 651 162 669 155 660 b 113 584 134 630 123 608 b 70 344 85 509 70 432 b 89 196 68 299 76 247 b 178 7 107 127 134 63 b 200 -19 185 -2 192 -11 b 253 -27 219 -36 238 -38 b 260 26 268 -17 271 4 z "},")":{"ha":311,"x_min":0,"x_max":0,"o":"m 242 234 b 212 496 241 321 230 417 b 153 660 199 553 181 608 b 133 688 147 670 142 681 b 88 693 121 699 102 701 b 71 652 75 685 66 668 b 82 623 73 642 78 632 b 117 541 96 596 109 569 b 159 167 153 419 168 294 b 123 28 155 119 147 71 b 117 12 120 23 118 17 b 130 -28 113 -4 116 -18 b 175 -28 143 -38 160 -38 b 195 -5 184 -22 190 -14 b 220 59 207 15 215 37 b 242 234 235 118 243 178 z "},"*":{"ha":482,"x_min":0,"x_max":0,"o":"m 386 625 b 409 650 395 631 404 639 b 383 696 418 672 407 693 b 350 692 372 697 361 696 b 322 682 341 690 332 686 b 318 716 316 695 319 706 b 311 749 317 727 316 739 b 255 755 298 774 272 776 b 243 727 248 747 245 737 b 235 684 240 712 238 698 b 213 692 225 681 219 688 b 141 740 189 708 165 724 b 109 751 132 746 121 751 b 73 730 93 752 79 744 b 79 688 67 715 68 701 b 101 671 85 682 93 676 b 163 629 121 657 142 643 b 177 613 169 625 176 623 b 110 579 156 600 133 589 b 85 561 101 574 92 570 b 78 523 76 550 73 537 b 110 500 84 508 95 501 b 143 506 122 499 133 501 b 199 534 162 515 180 525 b 214 535 204 536 209 540 b 211 508 217 525 211 517 b 240 463 209 486 221 468 b 285 486 257 458 276 467 b 293 512 289 494 290 503 b 299 532 295 519 296 525 b 307 535 300 535 303 537 b 328 524 314 532 321 528 b 361 515 339 520 349 515 b 394 529 374 514 386 517 b 392 568 402 542 400 556 b 365 594 385 579 375 587 b 357 608 361 597 354 599 b 386 625 366 613 376 619 z "},"+":{"ha":475,"x_min":0,"x_max":0,"o":"m 384 389 b 364 395 378 392 371 394 b 333 396 354 396 344 396 b 333 396 333 396 333 396 b 302 397 323 396 313 397 b 291 408 296 398 292 401 b 291 436 291 417 291 427 b 292 474 291 448 293 461 b 259 511 291 495 278 509 b 216 479 238 513 221 501 b 213 452 214 470 214 461 b 211 411 212 438 212 424 b 197 396 211 399 207 396 b 128 397 174 396 151 397 b 100 396 119 397 109 397 b 70 363 83 392 71 379 b 95 322 68 345 77 330 b 126 317 105 318 115 317 b 195 316 149 316 172 316 b 209 302 206 316 209 313 b 210 240 210 281 210 260 b 217 209 211 229 212 219 b 248 186 223 196 233 187 b 280 209 264 186 274 196 b 288 246 286 221 288 233 b 290 301 289 264 289 282 b 304 316 291 313 293 315 b 352 318 320 317 336 318 b 383 325 363 319 373 320 b 405 356 396 331 405 341 b 384 389 406 372 397 382 z "},",":{"ha":257,"x_min":0,"x_max":0,"o":"m 188 16 b 186 32 188 16 188 24 b 154 87 181 54 173 74 b 96 92 136 100 116 102 b 69 44 76 82 69 65 b 94 -6 70 23 75 5 b 101 -23 101 -10 103 -15 b 99 -37 100 -28 99 -32 b 123 -75 99 -55 108 -69 b 168 -60 138 -81 156 -75 b 178 -42 172 -54 176 -48 b 188 16 184 -26 188 -9 z "},"-":{"ha":463,"x_min":0,"x_max":0,"o":"m 371 396 b 334 402 359 402 347 403 b 120 400 263 401 192 401 b 103 399 115 400 109 400 b 69 362 83 396 70 381 b 99 324 69 344 80 329 b 133 321 109 322 119 322 b 243 320 167 320 205 320 b 336 323 274 321 305 322 b 373 332 349 323 361 326 b 393 365 386 339 394 349 b 371 396 393 380 385 390 z "},".":{"ha":247,"x_min":0,"x_max":0,"o":"m 125 104 b 69 48 92 104 69 81 b 124 -7 70 17 94 -7 b 178 48 153 -6 178 18 b 125 104 179 79 155 105 z "},"/":{"ha":488,"x_min":0,"x_max":0,"o":"m 390 657 b 348 641 376 662 358 656 b 337 620 344 635 341 627 b 305 552 326 597 317 574 b 91 101 235 412 151 245 b 73 52 84 85 78 69 b 71 18 69 42 68 30 b 114 -1 77 -1 96 -10 b 141 26 126 5 134 15 b 176 97 155 48 165 72 b 379 522 232 232 313 391 b 410 588 390 543 400 566 b 417 617 414 597 417 607 b 390 657 418 637 408 651 z "},":":{"ha":265,"x_min":0,"x_max":0,"o":"m 195 238 b 137 289 190 267 167 289 b 93 271 121 291 107 280 b 71 210 73 258 65 233 b 146 165 80 178 113 158 b 195 238 177 173 200 206 z m 108 417 b 183 477 145 407 184 438 b 156 525 181 496 174 514 b 110 528 141 534 125 537 b 71 475 90 516 75 500 b 108 417 67 449 82 424 z "},";":{"ha":268,"x_min":0,"x_max":0,"o":"m 184 37 b 151 70 177 51 166 63 b 71 31 118 87 78 67 b 87 -26 67 10 71 -12 b 107 -72 101 -39 107 -52 b 158 -98 108 -97 136 -110 b 174 -85 164 -94 170 -90 b 199 -19 191 -65 199 -41 b 184 37 198 -1 192 24 z m 135 315 b 189 371 165 315 189 340 b 137 424 189 400 166 423 b 84 368 109 425 84 398 b 135 315 83 339 106 315 z "},"<":{"ha":443,"x_min":0,"x_max":0,"o":"m 363 198 b 320 224 352 211 336 218 b 228 262 289 237 258 249 b 182 286 212 269 196 277 b 175 342 145 312 148 314 b 205 371 185 352 195 361 b 311 469 240 404 276 436 b 343 501 322 479 332 490 b 358 527 350 508 356 516 b 346 567 362 543 358 557 b 301 569 333 578 316 579 b 288 558 296 566 292 562 b 195 471 257 529 226 500 b 115 395 168 446 142 420 b 79 349 101 381 89 366 b 80 277 66 325 66 301 b 101 250 86 268 94 258 b 162 205 119 231 139 217 b 298 148 206 183 251 164 b 332 141 309 144 320 142 b 342 142 335 141 338 141 b 371 162 356 143 366 149 b 363 198 375 175 373 187 z "},"=":{"ha":481,"x_min":0,"x_max":0,"o":"m 388 323 b 368 328 382 326 375 327 b 330 330 355 329 343 331 b 131 333 264 327 197 329 b 97 330 120 334 108 334 b 70 298 82 325 72 315 b 92 259 68 282 76 267 b 122 253 101 254 111 254 b 362 251 202 248 282 248 b 385 255 370 251 378 252 b 411 288 400 260 410 271 b 388 323 412 305 402 316 z m 101 400 b 116 396 107 398 114 397 b 279 388 174 393 226 391 b 345 387 301 387 323 387 b 388 395 360 387 375 387 b 392 455 412 409 413 439 b 366 466 384 461 376 465 b 339 468 357 466 348 468 b 174 474 284 468 229 470 b 122 474 156 475 139 474 b 93 464 111 474 102 471 b 78 428 81 455 76 443 b 101 400 80 414 88 405 z "},">":{"ha":472,"x_min":0,"x_max":0,"o":"m 372 448 b 346 464 364 454 355 458 b 254 519 315 482 285 500 b 141 590 216 542 179 566 b 107 604 130 597 120 604 b 75 546 77 603 60 572 b 105 519 82 534 93 526 b 295 401 168 478 230 438 b 307 394 299 399 304 397 b 310 379 312 390 314 385 b 292 353 304 370 298 362 b 180 218 257 306 219 262 b 147 179 168 206 157 192 b 133 151 141 170 136 161 b 142 117 128 139 131 126 b 177 112 152 108 164 106 b 218 143 193 119 206 130 b 287 219 242 168 265 193 b 368 323 316 252 343 287 b 393 364 377 336 386 349 b 372 448 411 399 404 425 z "},"?":{"ha":378,"x_min":0,"x_max":0,"o":"m 264 625 b 164 656 238 655 202 666 b 72 495 90 635 59 555 b 113 464 77 475 94 463 b 148 500 132 466 146 479 b 149 524 149 508 148 516 b 173 572 151 543 157 560 b 207 569 184 581 197 580 b 228 499 224 549 232 526 b 219 459 226 486 223 472 b 193 376 212 434 204 400 b 129 190 176 340 143 228 b 121 156 126 179 121 168 b 145 118 121 138 130 123 b 188 131 160 113 176 118 b 204 162 196 140 200 151 b 262 339 217 197 245 304 b 296 437 275 367 287 408 b 308 508 303 461 308 484 b 264 625 309 553 294 592 z m 160 60 b 126 25 141 60 126 44 b 159 -8 127 6 141 -7 b 193 23 177 -8 192 6 b 160 60 194 42 179 59 z "},"@":{"ha":650,"x_min":0,"x_max":0,"o":"m 509 582 b 229 628 450 659 319 689 b 150 547 197 606 170 580 b 71 242 87 449 62 358 b 167 48 78 156 102 105 b 345 3 219 3 279 -9 b 493 79 401 13 450 42 b 509 97 499 84 505 90 b 509 141 520 112 519 129 b 468 151 498 155 483 155 b 440 137 458 148 449 142 b 403 112 428 129 416 120 b 317 80 377 95 348 83 b 221 108 281 76 249 84 b 160 200 185 139 173 154 b 152 333 147 243 146 288 b 217 516 161 398 181 460 b 259 552 230 536 241 538 b 449 528 320 599 403 589 b 493 335 498 466 510 411 b 470 282 488 316 481 298 b 439 281 458 265 450 264 b 425 312 434 291 429 302 b 410 372 419 332 413 352 b 372 452 405 402 393 429 b 243 459 335 492 284 495 b 231 447 239 456 235 452 b 222 211 170 377 173 277 b 330 181 247 177 289 166 b 365 202 342 186 354 193 b 384 218 371 207 377 212 b 397 207 389 214 393 211 b 519 216 439 174 486 183 b 552 264 533 229 544 246 b 509 582 601 382 587 479 z m 309 260 b 283 264 298 252 289 254 b 289 392 256 307 259 354 b 319 391 300 405 310 405 b 340 324 332 370 334 346 b 309 260 338 298 330 276 z "},"A":{"ha":511,"x_min":0,"x_max":0,"o":"m 441 42 b 437 79 440 52 439 69 b 337 510 402 230 370 403 b 303 611 327 544 315 577 b 279 652 298 626 291 641 b 207 648 257 674 227 673 b 194 624 202 641 197 632 b 179 585 188 611 184 598 b 132 406 159 527 145 466 b 71 61 116 327 96 182 b 70 50 71 57 70 52 b 98 3 68 24 79 7 b 146 32 119 -3 137 8 b 151 51 148 38 150 45 b 174 163 159 88 166 126 b 185 239 178 181 181 221 b 203 255 188 253 189 254 b 289 259 231 256 260 258 b 324 230 316 259 316 263 b 353 87 334 189 343 127 b 367 34 357 71 362 50 b 386 7 370 23 377 14 b 436 19 404 -6 426 0 b 441 42 440 26 442 34 z m 208 338 b 245 523 208 369 228 479 b 292 340 262 491 290 372 b 208 338 264 336 236 336 z "},"B":{"ha":481,"x_min":0,"x_max":0,"o":"m 411 185 b 385 283 408 215 400 256 b 322 355 369 311 349 336 b 320 375 312 362 313 365 b 324 380 321 376 323 378 b 334 548 365 434 367 491 b 141 667 291 621 227 662 b 70 594 88 670 64 637 b 81 477 76 555 78 516 b 104 76 89 349 96 204 b 111 32 105 61 107 46 b 151 1 116 11 129 2 b 171 1 158 1 165 1 b 283 6 210 2 247 -4 b 393 90 330 20 368 47 b 411 185 407 114 414 157 z m 166 392 b 164 409 165 397 165 403 b 153 563 160 460 157 512 b 153 574 153 567 153 570 b 163 584 153 580 157 584 b 274 482 208 580 267 526 b 275 472 275 478 275 473 b 257 425 276 451 269 437 b 175 385 235 403 206 391 b 166 392 170 383 166 387 z m 313 115 b 268 85 301 102 286 91 b 197 82 245 78 221 83 b 184 95 183 82 185 82 b 180 139 182 109 181 124 b 173 271 177 178 175 233 b 196 300 172 294 173 296 b 224 302 205 301 215 301 b 303 263 258 305 283 290 b 331 165 335 217 328 191 b 313 115 332 146 326 129 z "},"C":{"ha":496,"x_min":0,"x_max":0,"o":"m 425 67 b 400 93 422 81 412 89 b 362 93 387 97 375 96 b 325 85 350 91 337 88 b 201 117 278 73 237 86 b 149 212 172 142 157 176 b 139 334 140 248 139 298 b 162 494 138 389 146 442 b 186 547 168 512 175 531 b 209 573 193 556 200 565 b 257 578 223 586 239 586 b 281 558 266 573 274 566 b 310 508 294 544 303 527 b 334 386 322 476 330 421 b 336 366 334 379 334 372 b 370 336 340 349 354 338 b 409 364 387 335 405 347 b 412 391 412 373 413 382 b 368 572 408 447 395 522 b 336 616 360 588 349 603 b 131 607 283 673 195 689 b 87 522 111 581 97 553 b 67 213 56 425 51 313 b 86 147 71 190 77 168 b 184 31 105 97 138 58 b 295 0 218 10 256 -1 b 393 21 329 1 361 10 b 413 33 400 24 407 28 b 425 67 424 42 428 54 z "},"D":{"ha":481,"x_min":0,"x_max":0,"o":"m 354 512 b 226 634 325 567 282 607 b 139 664 198 647 168 655 b 88 652 120 670 103 665 b 69 606 74 639 69 625 b 73 465 71 559 71 512 b 85 115 76 351 76 228 b 94 30 87 87 91 58 b 121 2 96 15 106 5 b 162 3 134 -1 148 0 b 273 37 200 10 238 20 b 395 170 333 64 372 110 b 411 285 408 204 411 249 b 354 512 411 365 391 441 z m 331 259 b 321 200 330 242 327 216 b 235 107 305 156 277 125 b 168 87 215 98 194 91 b 151 552 153 240 155 401 b 155 572 151 559 150 566 b 174 569 162 575 168 572 b 275 489 216 553 252 528 b 331 259 316 419 336 342 z "},"E":{"ha":429,"x_min":0,"x_max":0,"o":"m 347 67 b 324 78 342 73 335 77 b 286 79 311 79 298 80 b 187 74 253 75 220 78 b 167 102 170 72 168 87 b 159 267 164 156 162 213 b 159 281 159 271 159 276 b 170 292 160 287 163 291 b 197 293 179 292 188 293 b 256 298 217 295 236 297 b 285 308 266 299 276 303 b 282 368 308 324 306 354 b 245 375 270 374 258 376 b 173 373 221 375 197 373 b 154 390 157 372 154 375 b 151 548 152 443 151 496 b 186 584 150 586 149 585 b 296 582 222 583 259 583 b 339 592 311 582 326 584 b 339 651 363 606 363 637 b 320 659 333 655 327 658 b 275 663 305 661 290 662 b 151 665 234 664 193 664 b 117 666 140 665 128 666 b 70 620 91 664 73 646 b 70 606 69 615 69 611 b 74 387 72 523 69 441 b 85 135 78 285 81 208 b 93 42 87 104 89 73 b 142 2 97 13 113 2 b 160 2 148 2 154 2 b 265 0 197 1 230 1 b 313 2 282 0 298 -1 b 347 15 326 4 337 6 b 347 67 364 30 362 52 z "},"F":{"ha":426,"x_min":0,"x_max":0,"o":"m 339 656 b 320 663 333 659 327 662 b 275 667 305 665 290 666 b 151 666 234 668 193 665 b 117 667 140 666 128 667 b 70 621 91 665 73 647 b 70 607 69 616 69 612 b 74 388 72 524 69 442 b 85 136 78 286 81 209 b 93 40 87 105 89 71 b 142 0 97 11 113 0 b 159 4 142 0 155 2 b 171 45 163 6 171 12 b 168 91 170 63 169 81 b 167 103 168 99 167 103 b 159 268 164 157 162 214 b 159 282 159 272 159 277 b 170 293 160 288 163 292 b 197 294 179 293 188 294 b 256 299 217 296 236 298 b 285 309 266 300 276 304 b 282 369 308 325 306 355 b 245 376 270 375 258 377 b 173 374 221 376 197 374 b 154 391 157 373 154 376 b 151 549 152 444 151 497 b 185 588 150 587 149 589 b 296 587 222 587 259 587 b 339 596 311 586 326 589 b 339 656 363 610 363 641 z "},"G":{"ha":515,"x_min":0,"x_max":0,"o":"m 443 50 b 443 50 443 50 443 50 b 442 250 449 83 442 250 b 375 291 442 281 410 291 b 308 291 340 291 350 291 b 308 224 265 291 263 224 b 361 224 353 224 354 224 b 377 187 374 224 377 207 b 377 106 377 177 377 138 b 370 93 377 102 377 95 b 336 82 358 89 349 85 b 212 117 289 70 248 86 b 160 212 183 142 168 176 b 150 341 151 248 150 304 b 173 500 149 395 157 448 b 198 553 179 519 186 537 b 220 579 204 562 211 571 b 270 590 234 592 253 598 b 301 565 280 585 294 573 b 331 515 314 550 324 533 b 354 392 343 482 351 427 b 356 372 355 386 355 378 b 391 343 361 355 375 344 b 430 371 408 342 425 353 b 433 398 432 379 433 389 b 389 578 429 453 415 529 b 357 622 380 594 369 609 b 142 613 303 679 206 696 b 98 528 122 588 108 559 b 78 213 67 431 62 313 b 97 147 82 190 88 168 b 195 31 116 97 150 58 b 307 0 229 10 267 -1 b 410 18 340 1 379 7 b 431 30 417 21 424 25 b 442 48 437 35 441 41 l 442 48 b 443 50 442 49 442 49 z "},"H":{"ha":501,"x_min":0,"x_max":0,"o":"m 431 630 b 397 667 429 651 415 665 b 354 634 377 669 359 655 b 352 607 352 625 352 616 b 346 393 350 537 348 463 b 346 376 346 388 346 382 b 330 363 345 365 341 361 b 255 368 305 368 280 369 b 179 366 230 368 204 367 b 162 366 173 366 168 366 b 153 375 157 366 153 370 b 152 395 152 381 152 388 b 156 516 153 435 155 476 b 159 612 157 548 158 580 b 155 643 159 623 159 633 b 118 670 149 659 134 670 b 82 642 103 669 89 658 b 78 608 78 631 79 619 b 74 443 77 553 76 498 b 70 75 69 336 69 182 b 71 54 70 68 70 61 b 77 27 72 45 74 36 b 113 0 83 9 97 -1 b 145 31 128 1 141 12 b 150 65 148 42 149 53 b 149 116 150 79 149 102 b 150 264 149 152 149 227 b 169 285 150 283 152 284 b 269 289 202 287 235 289 b 334 283 290 289 312 285 b 344 271 340 282 344 278 b 345 247 345 263 345 255 b 344 82 345 205 344 124 b 346 41 344 68 344 54 b 379 1 349 18 362 3 b 417 35 395 -1 410 12 b 422 62 420 43 421 52 b 423 106 423 76 423 91 l 425 358 b 431 609 427 441 429 527 b 431 630 431 616 432 623 z "},"I":{"ha":232,"x_min":0,"x_max":0,"o":"m 162 134 b 158 252 160 173 159 213 b 150 600 155 358 153 494 b 147 634 150 612 149 623 b 108 667 142 655 127 668 b 71 633 90 667 74 653 b 70 599 69 622 69 610 b 76 326 73 516 76 405 b 82 133 78 259 80 196 b 82 61 83 109 82 85 b 85 30 82 51 82 40 b 122 0 89 11 104 0 b 157 28 138 0 151 11 b 160 52 159 36 160 44 b 162 134 163 79 163 107 z "},"J":{"ha":476,"x_min":0,"x_max":0,"o":"m 407 607 b 403 641 407 619 408 630 b 366 666 396 658 383 667 b 331 638 349 666 335 656 b 328 611 328 630 328 620 b 327 508 327 577 327 542 b 317 284 326 434 324 358 b 305 143 315 258 311 169 b 288 105 301 129 296 117 b 242 81 277 89 262 81 b 187 111 218 81 200 91 b 166 162 177 127 170 144 b 150 218 161 181 156 200 b 136 249 147 229 142 240 b 98 267 128 263 115 270 b 70 232 83 264 72 250 b 72 202 69 222 70 212 b 92 128 79 177 85 153 b 123 63 99 105 109 83 b 358 65 180 -19 303 -23 b 380 116 367 81 376 98 b 393 187 385 139 390 163 b 407 472 403 255 404 387 b 407 607 407 505 407 558 z "},"K":{"ha":517,"x_min":0,"x_max":0,"o":"m 446 52 b 433 80 443 61 438 71 b 345 204 413 116 370 172 b 214 377 301 262 257 320 b 216 412 201 396 201 396 b 301 516 244 443 273 484 b 357 582 320 538 338 560 b 375 615 365 592 372 602 b 359 660 380 632 373 650 b 311 653 343 669 326 667 b 302 643 308 650 305 646 b 177 487 264 591 220 535 b 162 469 171 481 167 475 b 152 463 158 465 154 461 b 150 474 150 464 150 472 b 149 491 150 480 149 485 b 150 606 150 522 150 575 b 148 637 151 617 151 627 b 110 666 141 655 127 667 b 74 638 93 666 80 655 b 70 604 70 627 70 616 b 70 372 70 534 70 442 b 85 59 67 268 79 164 b 90 32 85 50 87 41 b 99 14 92 26 95 19 b 156 18 114 -6 144 -4 b 165 51 162 28 165 39 b 162 96 164 66 163 81 b 150 281 158 158 154 220 b 150 309 150 291 150 300 b 152 324 150 312 150 321 b 161 314 154 323 159 315 b 172 301 165 310 168 305 b 235 215 193 272 213 243 b 368 34 275 163 337 92 b 383 15 372 27 378 20 b 430 6 398 1 416 -2 b 446 52 445 15 451 32 z "},"L":{"ha":458,"x_min":0,"x_max":0,"o":"m 400 75 b 374 82 392 80 383 81 b 298 84 349 86 323 85 b 195 81 264 83 229 81 b 175 101 178 80 177 82 b 174 111 174 104 174 107 b 154 485 165 220 159 376 b 149 612 152 527 151 569 b 141 645 148 623 147 635 b 101 666 133 660 118 668 b 70 633 85 663 73 651 b 70 613 69 627 69 620 b 71 578 70 601 71 590 b 88 187 72 464 82 302 b 99 57 90 144 94 100 b 164 0 103 13 118 0 b 195 0 174 0 184 0 b 263 3 217 1 240 2 b 263 4 263 4 263 4 b 363 4 297 4 330 4 b 390 6 372 5 382 4 b 422 39 408 10 421 23 b 400 75 422 55 414 67 z "},"M":{"ha":624,"x_min":0,"x_max":0,"o":"m 550 450 b 546 601 550 486 547 564 b 537 641 545 615 543 628 b 465 651 522 670 487 675 b 450 628 459 644 454 636 b 428 577 442 611 435 594 b 336 247 394 492 363 335 b 313 173 329 223 321 199 b 295 207 302 187 299 197 b 174 618 253 325 215 500 b 164 644 171 627 168 635 b 128 667 157 658 145 666 b 72 618 93 669 75 654 b 72 601 72 612 72 607 b 71 490 72 573 72 517 b 79 87 67 356 72 220 b 84 43 80 72 82 58 b 93 17 85 33 88 25 b 151 19 108 -7 138 -5 b 160 60 158 32 160 46 b 156 149 159 88 157 120 b 149 372 154 223 151 298 b 154 404 149 380 150 395 b 173 352 159 390 168 366 b 263 58 203 267 232 143 b 278 23 267 46 271 34 b 349 23 296 -5 330 -5 b 361 47 355 30 358 39 b 388 144 371 73 380 118 b 455 377 411 215 433 306 b 468 409 458 385 463 401 b 471 371 472 397 471 381 b 475 68 473 270 474 169 b 476 40 475 59 475 49 b 482 21 477 34 479 27 b 512 0 488 8 498 1 b 545 20 527 -1 538 7 b 553 50 550 30 552 40 b 554 95 553 65 554 80 b 550 450 553 213 552 331 z "},"N":{"ha":511,"x_min":0,"x_max":0,"o":"m 441 207 b 437 303 439 239 438 271 b 431 602 435 387 429 519 b 428 640 431 615 432 628 b 395 670 422 659 411 669 b 357 642 378 672 363 661 b 353 621 355 635 353 628 b 350 584 351 609 350 596 b 360 257 349 491 354 350 b 360 212 360 250 360 221 b 347 246 355 225 349 242 b 326 293 340 262 333 277 b 173 614 283 391 226 521 b 161 635 169 621 165 628 b 113 668 148 657 135 663 b 73 642 96 672 78 659 b 70 615 71 633 70 624 b 70 518 70 594 71 539 b 73 167 69 401 68 284 b 79 60 74 131 77 95 b 91 18 79 45 82 30 b 148 19 107 -4 134 -4 b 156 45 153 27 155 36 b 156 80 156 57 157 68 b 152 193 155 118 153 156 b 149 441 148 276 148 359 b 148 482 149 447 148 482 b 166 445 148 482 164 449 b 191 394 175 428 183 412 b 252 263 212 350 232 307 b 333 56 279 203 306 115 b 351 23 338 44 344 33 b 398 1 362 6 378 -3 b 435 38 419 4 430 19 b 439 65 437 46 438 56 b 441 207 441 103 442 169 z "},"O":{"ha":507,"x_min":0,"x_max":0,"o":"m 438 321 b 418 508 438 384 433 447 b 379 603 410 542 399 575 b 262 665 351 644 311 663 b 217 652 246 666 230 662 b 95 486 157 610 117 555 b 69 320 77 432 69 376 b 93 155 70 269 77 203 b 171 40 109 109 134 70 b 403 86 250 -24 351 -12 b 425 151 413 106 420 128 b 438 321 435 202 438 269 z m 349 178 b 340 142 347 166 344 154 b 325 111 336 131 331 120 b 241 89 299 76 275 74 b 211 111 229 94 220 102 b 163 198 188 136 172 165 b 171 461 142 281 144 379 b 216 545 181 492 195 521 b 263 579 229 560 244 572 b 293 577 274 583 283 582 b 326 535 310 567 319 552 b 348 452 338 508 344 480 b 355 400 351 435 354 417 b 358 318 357 373 357 345 b 349 178 357 276 357 219 z "},"P":{"ha":453,"x_min":0,"x_max":0,"o":"m 336 586 b 128 666 279 645 209 671 b 70 610 95 665 72 642 b 70 596 69 605 69 600 b 75 334 71 509 73 421 l 85 62 b 90 28 86 50 86 39 b 130 0 98 10 113 -1 b 163 35 147 2 160 15 b 164 73 164 47 164 60 b 157 255 161 133 159 194 b 157 283 156 264 157 273 b 166 292 157 288 161 291 b 183 294 172 293 177 293 b 283 319 218 296 251 305 b 377 430 332 340 364 377 b 336 586 392 489 377 542 z m 254 393 b 168 373 227 381 198 375 b 150 384 159 372 150 374 l 150 481 b 150 570 150 511 150 540 b 164 585 150 581 154 585 b 291 513 219 582 261 557 b 254 393 318 471 300 415 z "},"Q":{"ha":564,"x_min":0,"x_max":0,"o":"m 494 40 b 483 69 491 50 488 60 b 459 107 476 82 468 95 b 451 151 448 121 445 134 b 464 229 460 176 463 203 b 453 420 466 289 463 361 b 408 571 445 472 431 523 b 298 663 385 618 348 650 b 169 628 249 676 205 667 b 131 575 154 612 142 594 b 71 372 96 512 76 444 b 114 133 65 293 80 205 b 187 43 131 97 155 66 b 376 39 243 4 312 -7 b 396 53 383 44 389 48 b 419 26 407 46 411 35 b 445 4 427 18 435 10 b 481 7 458 -2 470 -2 b 494 40 492 15 497 27 z m 378 216 b 354 240 366 221 361 232 b 329 269 345 250 338 260 b 309 287 323 276 316 282 b 261 282 293 297 274 295 b 256 235 248 270 246 252 b 270 216 260 228 265 222 b 338 133 293 188 315 161 b 335 108 347 122 346 117 b 236 106 303 83 274 82 b 190 160 216 119 201 138 b 153 278 170 197 158 236 b 200 536 142 364 158 459 b 231 577 209 551 218 565 b 272 588 243 588 256 592 b 333 541 299 580 320 566 b 353 494 341 526 347 510 b 386 276 377 426 382 343 b 385 251 386 265 386 258 b 378 216 383 239 390 225 z "},"R":{"ha":479,"x_min":0,"x_max":0,"o":"m 440 50 b 420 81 436 62 428 72 b 254 248 369 139 313 198 b 242 263 250 253 242 254 b 274 277 251 272 263 272 b 364 390 325 298 354 337 b 314 574 378 457 360 524 b 164 660 273 619 222 645 b 127 667 152 664 140 666 b 75 624 98 669 79 654 b 74 597 74 615 75 606 b 71 401 73 535 74 463 b 76 101 67 301 72 201 b 81 50 77 84 79 67 b 89 20 81 40 84 29 b 126 0 97 6 110 -2 b 155 26 141 3 151 12 b 158 57 157 36 158 47 b 154 136 157 83 155 110 b 150 215 153 162 152 189 b 171 210 162 217 166 213 b 266 130 206 187 237 160 b 358 31 297 100 330 64 b 393 4 368 20 379 9 b 432 8 407 -2 420 -2 b 440 50 443 18 446 33 z m 212 341 b 150 388 137 325 151 319 b 150 459 150 409 150 439 l 155 566 b 169 575 155 575 161 578 b 264 510 207 563 239 541 b 287 407 286 482 293 441 b 239 349 282 379 266 358 b 212 341 230 346 221 343 z "},"S":{"ha":474,"x_min":0,"x_max":0,"o":"m 395 509 b 369 580 391 535 382 558 b 282 655 350 616 320 641 b 138 628 229 675 180 666 b 77 425 78 573 56 505 b 138 319 88 384 108 349 b 229 214 167 291 198 248 b 275 148 248 196 260 171 b 291 118 281 139 287 129 b 264 81 298 97 286 82 b 228 90 251 80 239 83 b 204 109 219 96 211 103 b 165 144 191 121 178 132 b 133 163 156 152 145 159 b 98 155 120 167 107 165 b 90 119 88 144 86 133 b 106 93 94 109 99 101 b 183 24 129 68 154 44 b 261 0 206 9 232 0 b 368 139 339 -1 388 64 b 344 189 363 157 354 173 b 271 277 327 215 293 255 b 203 362 245 303 227 332 b 179 394 194 373 187 382 b 181 558 139 451 138 508 b 278 567 211 594 250 589 b 304 534 289 558 298 547 b 319 475 313 516 317 496 b 324 403 321 451 322 427 b 326 379 325 395 324 387 b 364 346 330 358 345 346 b 401 376 382 346 397 358 b 404 420 404 390 403 406 b 395 509 404 450 399 480 z "},"T":{"ha":503,"x_min":0,"x_max":0,"o":"m 414 662 b 395 668 408 666 401 668 b 350 670 380 670 365 670 b 151 667 283 667 217 670 b 106 661 136 666 121 663 b 82 648 97 660 89 655 b 72 608 71 637 66 623 b 108 581 77 592 91 581 b 125 584 114 581 120 583 b 191 589 147 586 169 588 b 205 568 201 590 205 579 b 206 541 206 559 206 550 b 206 326 206 464 206 403 b 214 68 203 240 208 154 b 224 22 215 52 217 36 b 260 0 232 6 245 -1 b 289 26 276 2 284 12 b 293 84 295 45 294 65 b 283 335 287 168 282 251 b 285 478 284 389 284 424 b 285 564 285 505 285 536 b 305 587 285 585 286 585 b 364 592 325 589 344 590 b 416 607 382 594 400 597 b 414 662 439 622 438 650 z "},"U":{"ha":518,"x_min":0,"x_max":0,"o":"m 447 613 b 438 649 447 625 444 638 b 405 669 431 662 420 670 b 373 647 389 669 379 660 b 367 609 368 635 367 622 b 368 445 367 572 368 483 b 358 246 369 378 366 312 b 338 148 354 213 348 180 b 319 104 334 132 328 117 b 269 80 306 87 291 78 b 176 152 219 83 190 104 b 168 182 173 162 170 172 b 159 264 165 209 161 237 b 149 603 152 358 152 509 b 146 638 149 615 149 627 b 111 670 143 657 129 669 b 71 638 92 671 76 658 b 69 611 69 630 69 620 b 72 416 70 565 71 462 b 73 416 72 416 72 416 b 75 351 73 394 75 373 b 83 213 76 305 79 259 b 103 119 87 181 93 150 b 223 8 122 59 162 22 b 274 0 239 4 257 1 b 364 35 308 -1 339 11 b 401 89 380 50 392 68 b 421 151 410 109 416 129 b 445 328 436 209 441 268 b 447 613 451 406 448 535 z "},"V":{"ha":526,"x_min":0,"x_max":0,"o":"m 455 640 b 422 667 449 655 439 665 b 386 646 406 668 393 661 b 377 620 382 638 379 629 b 320 289 364 534 341 374 b 272 142 308 239 292 190 b 255 116 269 134 267 124 b 244 147 251 127 247 137 b 150 618 204 277 173 483 b 140 650 148 629 147 640 b 102 668 131 664 118 670 b 72 642 87 665 77 656 b 70 619 70 635 69 627 b 76 578 72 605 73 591 b 123 283 89 503 105 356 b 184 75 141 213 161 143 b 205 28 189 58 195 42 b 296 21 229 -7 267 -9 b 325 67 308 35 317 51 b 370 176 343 102 357 139 b 424 454 393 242 408 386 b 455 606 437 504 448 555 b 455 640 457 617 459 629 z "},"W":{"ha":681,"x_min":0,"x_max":0,"o":"m 609 637 b 578 665 604 652 593 664 b 543 648 563 667 551 660 b 531 612 535 637 533 625 b 490 296 517 523 504 384 b 474 198 485 264 481 231 b 462 213 465 201 464 207 b 428 386 451 253 439 345 b 372 628 409 459 391 555 b 326 667 365 655 347 669 b 287 625 306 665 292 651 b 280 570 284 607 283 588 b 233 230 265 481 249 319 b 225 204 231 221 231 212 b 214 233 217 212 216 223 b 173 489 200 301 186 420 b 151 614 165 529 159 575 b 140 650 149 626 147 639 b 98 667 130 664 115 671 b 70 636 84 664 72 652 b 71 609 69 627 69 618 b 127 261 89 512 107 358 b 173 64 140 196 157 128 b 186 28 176 52 180 39 b 265 27 204 -7 245 -7 b 276 52 270 35 274 44 b 297 139 283 80 291 111 b 331 376 309 201 320 314 b 335 389 332 380 333 385 b 339 393 335 391 337 392 b 344 391 341 395 343 393 b 347 381 345 387 346 384 b 431 54 369 287 402 145 b 452 14 436 39 441 25 b 520 20 472 -7 504 -4 b 531 45 525 27 528 36 b 538 86 534 58 536 72 b 583 432 553 184 568 334 b 609 602 592 489 600 546 b 609 637 611 614 612 625 z "},"X":{"ha":500,"x_min":0,"x_max":0,"o":"m 430 40 b 417 83 430 56 423 69 b 307 315 381 156 344 243 b 304 367 298 334 297 349 b 379 581 328 436 353 513 b 389 613 383 591 387 602 b 370 664 395 637 387 657 b 319 640 352 671 332 663 b 303 605 313 629 308 617 b 255 467 287 563 271 510 b 244 451 253 462 252 456 b 211 503 236 458 215 495 b 154 625 192 544 173 585 b 134 657 149 637 144 648 b 93 665 122 668 108 672 b 70 626 77 658 69 644 b 79 597 70 615 75 606 b 175 385 111 529 143 452 b 184 366 178 379 181 373 b 204 324 188 359 207 332 b 195 302 201 317 198 309 b 101 84 168 227 135 155 b 88 55 96 74 92 65 b 105 5 79 34 89 13 b 156 19 122 -5 143 1 b 171 46 162 27 167 37 b 244 206 196 99 221 152 b 257 230 247 214 248 224 b 274 200 267 222 269 210 b 346 45 298 153 323 93 b 370 11 352 33 359 21 b 411 3 382 0 396 -3 b 430 40 424 8 431 23 z "},"Y":{"ha":563,"x_min":0,"x_max":0,"o":"m 447 667 b 420 647 435 664 426 657 b 411 621 416 639 413 630 b 326 376 388 550 349 447 b 311 347 323 366 322 353 b 289 378 300 355 295 367 b 152 629 247 453 197 556 b 135 654 147 638 142 647 b 91 663 123 667 106 670 b 70 620 75 656 67 639 b 77 601 72 613 74 607 b 91 577 81 593 86 585 b 214 349 131 511 176 416 b 268 262 230 319 247 289 b 280 227 277 251 279 240 b 287 76 282 177 284 126 b 292 38 288 63 290 51 b 306 11 293 28 298 18 b 360 15 321 -5 346 -3 b 369 44 366 24 369 33 b 366 96 368 61 367 78 b 360 213 364 135 362 174 b 367 260 359 229 361 244 b 487 598 409 359 453 495 b 493 625 489 606 492 615 b 447 667 495 651 472 671 z "},"Z":{"ha":522,"x_min":0,"x_max":0,"o":"m 438 67 b 412 77 430 73 421 75 b 337 81 387 82 362 81 b 186 84 314 82 209 82 b 161 96 177 84 168 86 b 185 145 169 112 176 128 b 284 334 218 208 251 271 b 418 570 330 420 375 483 b 431 602 423 581 428 591 b 393 663 440 634 425 657 b 366 664 384 664 375 664 b 115 661 282 662 199 671 b 89 653 106 660 97 657 b 70 612 74 645 67 629 b 103 581 73 596 86 584 b 127 582 111 580 119 582 b 293 587 176 592 228 589 b 332 584 305 587 317 586 b 324 558 330 574 327 564 b 207 359 285 484 247 432 b 93 138 168 286 131 212 b 77 101 87 126 81 114 b 105 26 67 70 77 44 b 140 12 116 20 127 16 b 403 3 200 -4 342 -1 b 423 8 410 4 417 6 b 439 15 429 9 434 12 b 438 67 458 29 457 54 z "},"[":{"ha":318,"x_min":0,"x_max":0,"o":"m 222 13 b 195 21 213 17 204 18 b 175 47 178 26 176 28 b 174 75 174 56 174 66 b 162 309 170 153 166 231 b 149 591 158 403 153 497 b 176 625 147 618 146 625 b 183 626 179 625 181 626 b 216 668 204 631 217 648 b 179 702 214 687 200 701 b 120 702 159 703 140 703 b 75 665 97 700 82 687 b 71 638 73 657 71 647 b 70 587 70 621 69 604 b 81 336 73 503 77 419 b 82 336 81 336 82 336 b 92 126 85 266 88 196 b 98 19 93 90 96 55 b 121 -33 99 -1 105 -20 b 212 -59 148 -54 179 -60 b 248 -27 231 -58 245 -44 b 222 13 250 -11 240 5 z "},"\\":{"ha":400,"x_min":0,"x_max":0,"o":"m 330 21 b 321 74 331 43 325 58 b 253 268 298 152 276 189 b 153 597 219 388 182 475 b 144 634 150 610 148 622 b 100 660 136 653 118 663 b 69 620 82 656 69 641 b 75 582 70 607 72 594 b 232 92 117 392 176 279 b 254 26 239 70 246 48 b 274 -5 258 14 264 3 b 330 16 296 -22 325 -11 b 330 21 330 20 330 23 z "},"]":{"ha":306,"x_min":0,"x_max":0,"o":"m 235 50 b 233 85 235 58 234 72 b 219 281 226 150 222 216 b 206 577 216 380 211 478 b 199 638 205 598 202 618 b 163 686 195 660 184 678 b 106 695 145 693 125 696 b 70 663 87 693 73 680 b 91 622 67 647 76 631 b 110 616 97 619 103 617 b 124 599 119 613 124 608 b 126 578 125 592 126 585 b 138 327 130 495 135 411 b 155 56 140 237 146 146 b 130 23 158 30 158 30 b 117 19 126 22 121 21 b 102 -33 97 10 90 -14 b 127 -51 108 -42 116 -48 b 217 -30 160 -57 191 -52 b 235 6 228 -21 234 -8 b 235 50 236 19 235 32 z "},"^":{"ha":410,"x_min":0,"x_max":0,"o":"m 340 563 b 334 590 339 572 337 581 b 274 739 318 641 300 692 b 253 770 268 751 262 761 b 184 772 232 789 205 789 b 172 759 180 768 176 764 b 78 608 137 711 104 662 b 70 582 75 599 72 590 b 95 538 67 562 77 544 b 140 554 111 532 129 538 b 152 578 145 561 148 570 b 214 678 169 612 188 645 b 251 589 232 647 240 617 b 270 544 257 574 263 559 b 293 520 275 534 282 525 b 335 533 309 513 326 518 b 340 563 340 542 342 552 z "},"_":{"ha":713,"x_min":0,"x_max":0,"o":"m 231 3 b 489 0 317 2 403 1 b 586 1 521 0 554 1 b 619 8 597 1 609 3 b 644 42 634 15 644 25 b 617 75 644 57 634 69 b 590 80 609 78 599 79 b 549 80 577 81 563 80 b 308 82 469 81 389 80 b 126 87 247 82 187 85 b 95 84 115 88 105 88 b 70 54 81 79 72 69 b 86 18 68 39 74 27 b 121 7 96 10 108 7 b 231 3 158 6 194 4 z "},"`":{"ha":271,"x_min":0,"x_max":0,"o":"m 190 535 b 147 625 176 565 161 595 b 137 639 144 630 141 635 b 91 650 126 653 106 657 b 70 609 77 643 67 626 b 80 580 72 599 76 590 b 116 506 92 555 104 531 b 133 480 121 497 127 488 b 153 462 138 472 145 466 b 200 485 175 451 196 461 b 201 492 201 488 201 492 b 190 535 201 509 196 522 z "},"a":{"ha":511,"x_min":0,"x_max":0,"o":"m 441 42 b 437 79 440 52 439 69 b 337 510 402 230 370 403 b 303 611 327 544 315 577 b 279 652 298 626 291 641 b 207 648 257 674 227 673 b 194 624 202 641 197 632 b 179 585 188 611 184 598 b 132 406 159 527 145 466 b 71 61 116 327 96 182 b 70 50 71 57 70 52 b 98 3 68 24 79 7 b 146 32 119 -3 137 8 b 151 51 148 38 150 45 b 174 163 159 88 166 126 b 185 239 178 181 181 221 b 203 255 188 253 189 254 b 289 259 231 256 260 258 b 324 230 316 259 316 263 b 353 87 334 189 343 127 b 367 34 357 71 362 50 b 386 7 370 23 377 14 b 436 19 404 -6 426 0 b 441 42 440 26 442 34 z m 208 338 b 245 523 208 369 228 479 b 292 340 262 491 290 372 b 208 338 264 336 236 336 z "},"b":{"ha":481,"x_min":0,"x_max":0,"o":"m 411 185 b 385 283 408 215 400 256 b 322 355 369 311 349 336 b 320 375 312 362 313 365 b 324 380 321 376 323 378 b 334 548 365 434 367 491 b 141 667 291 621 227 662 b 70 594 88 670 64 637 b 81 477 76 555 78 516 b 104 76 89 349 96 204 b 111 32 105 61 107 46 b 151 1 116 11 129 2 b 171 1 158 1 165 1 b 283 6 210 2 247 -4 b 393 90 330 20 368 47 b 411 185 407 114 414 157 z m 166 392 b 164 409 165 397 165 403 b 153 563 160 460 157 512 b 153 574 153 567 153 570 b 163 584 153 580 157 584 b 274 482 208 580 267 526 b 275 472 275 478 275 473 b 257 425 276 451 269 437 b 175 385 235 403 206 391 b 166 392 170 383 166 387 z m 313 115 b 268 85 301 102 286 91 b 197 82 245 78 221 83 b 184 95 183 82 185 82 b 180 139 182 109 181 124 b 173 271 177 178 175 233 b 196 300 172 294 173 296 b 224 302 205 301 215 301 b 303 263 258 305 283 290 b 331 165 335 217 328 191 b 313 115 332 146 326 129 z "},"c":{"ha":496,"x_min":0,"x_max":0,"o":"m 425 67 b 400 93 422 81 412 89 b 362 93 387 97 375 96 b 325 85 350 91 337 88 b 201 117 278 73 237 86 b 149 212 172 142 157 176 b 139 334 140 248 139 298 b 162 494 138 389 146 442 b 186 547 168 512 175 531 b 209 573 193 556 200 565 b 257 578 223 586 239 586 b 281 558 266 573 274 566 b 310 508 294 544 303 527 b 334 386 322 476 330 421 b 336 366 334 379 334 372 b 370 336 340 349 354 338 b 409 364 387 335 405 347 b 412 391 412 373 413 382 b 368 572 408 447 395 522 b 336 616 360 588 349 603 b 131 607 283 673 195 689 b 87 522 111 581 97 553 b 67 213 56 425 51 313 b 86 147 71 190 77 168 b 184 31 105 97 138 58 b 295 0 218 10 256 -1 b 393 21 329 1 361 10 b 413 33 400 24 407 28 b 425 67 424 42 428 54 z "},"d":{"ha":481,"x_min":0,"x_max":0,"o":"m 354 512 b 226 634 325 567 282 607 b 139 664 198 647 168 655 b 88 652 120 670 103 665 b 69 606 74 639 69 625 b 73 465 71 559 71 512 b 85 115 76 351 76 228 b 94 30 87 87 91 58 b 121 2 96 15 106 5 b 162 3 134 -1 148 0 b 273 37 200 10 238 20 b 395 170 333 64 372 110 b 411 285 408 204 411 249 b 354 512 411 365 391 441 z m 331 259 b 321 200 330 242 327 216 b 235 107 305 156 277 125 b 168 87 215 98 194 91 b 151 552 153 240 155 401 b 155 572 151 559 150 566 b 174 569 162 575 168 572 b 275 489 216 553 252 528 b 331 259 316 419 336 342 z "},"e":{"ha":429,"x_min":0,"x_max":0,"o":"m 347 67 b 324 78 342 73 335 77 b 286 79 311 79 298 80 b 187 74 253 75 220 78 b 167 102 170 72 168 87 b 159 267 164 156 162 213 b 159 281 159 271 159 276 b 170 292 160 287 163 291 b 197 293 179 292 188 293 b 256 298 217 295 236 297 b 285 308 266 299 276 303 b 282 368 308 324 306 354 b 245 375 270 374 258 376 b 173 373 221 375 197 373 b 154 390 157 372 154 375 b 151 548 152 443 151 496 b 186 584 150 586 149 585 b 296 582 222 583 259 583 b 339 592 311 582 326 584 b 339 651 363 606 363 637 b 320 659 333 655 327 658 b 275 663 305 661 290 662 b 151 665 234 664 193 664 b 117 666 140 665 128 666 b 70 620 91 664 73 646 b 70 606 69 615 69 611 b 74 387 72 523 69 441 b 85 135 78 285 81 208 b 93 42 87 104 89 73 b 142 2 97 13 113 2 b 160 2 148 2 154 2 b 265 0 197 1 230 1 b 313 2 282 0 298 -1 b 347 15 326 4 337 6 b 347 67 364 30 362 52 z "},"f":{"ha":426,"x_min":0,"x_max":0,"o":"m 339 656 b 320 663 333 659 327 662 b 275 667 305 665 290 666 b 151 666 234 668 193 665 b 117 667 140 666 128 667 b 70 621 91 665 73 647 b 70 607 69 616 69 612 b 74 388 72 524 69 442 b 85 136 78 286 81 209 b 93 40 87 105 89 71 b 142 0 97 11 113 0 b 159 4 142 0 155 2 b 171 45 163 6 171 12 b 168 91 170 63 169 81 b 167 103 168 99 167 103 b 159 268 164 157 162 214 b 159 282 159 272 159 277 b 170 293 160 288 163 292 b 197 294 179 293 188 294 b 256 299 217 296 236 298 b 285 309 266 300 276 304 b 282 369 308 325 306 355 b 245 376 270 375 258 377 b 173 374 221 376 197 374 b 154 391 157 373 154 376 b 151 549 152 444 151 497 b 185 588 150 587 149 589 b 296 587 222 587 259 587 b 339 596 311 586 326 589 b 339 656 363 610 363 641 z "},"g":{"ha":515,"x_min":0,"x_max":0,"o":"m 443 50 b 443 50 443 50 443 50 b 442 250 449 83 442 250 b 375 291 442 281 410 291 b 308 291 340 291 350 291 b 308 224 265 291 263 224 b 361 224 353 224 354 224 b 377 187 374 224 377 207 b 377 106 377 177 377 138 b 370 93 377 102 377 95 b 336 82 358 89 349 85 b 212 117 289 70 248 86 b 160 212 183 142 168 176 b 150 341 151 248 150 304 b 173 500 149 395 157 448 b 198 553 179 519 186 537 b 220 579 204 562 211 571 b 270 590 234 592 253 598 b 301 565 280 585 294 573 b 331 515 314 550 324 533 b 354 392 343 482 351 427 b 356 372 355 386 355 378 b 391 343 361 355 375 344 b 430 371 408 342 425 353 b 433 398 432 379 433 389 b 389 578 429 453 415 529 b 357 622 380 594 369 609 b 142 613 303 679 206 696 b 98 528 122 588 108 559 b 78 213 67 431 62 313 b 97 147 82 190 88 168 b 195 31 116 97 150 58 b 307 0 229 10 267 -1 b 410 18 340 1 379 7 b 431 30 417 21 424 25 b 442 48 437 35 441 41 l 442 48 b 443 50 442 49 442 49 z "},"h":{"ha":501,"x_min":0,"x_max":0,"o":"m 431 630 b 397 667 429 651 415 665 b 354 634 377 669 359 655 b 352 607 352 625 352 616 b 346 393 350 537 348 463 b 346 376 346 388 346 382 b 330 363 345 365 341 361 b 255 368 305 368 280 369 b 179 366 230 368 204 367 b 162 366 173 366 168 366 b 153 375 157 366 153 370 b 152 395 152 381 152 388 b 156 516 153 435 155 476 b 159 612 157 548 158 580 b 155 643 159 623 159 633 b 118 670 149 659 134 670 b 82 642 103 669 89 658 b 78 608 78 631 79 619 b 74 443 77 553 76 498 b 70 75 69 336 69 182 b 71 54 70 68 70 61 b 77 27 72 45 74 36 b 113 0 83 9 97 -1 b 145 31 128 1 141 12 b 150 65 148 42 149 53 b 149 116 150 79 149 102 b 150 264 149 152 149 227 b 169 285 150 283 152 284 b 269 289 202 287 235 289 b 334 283 290 289 312 285 b 344 271 340 282 344 278 b 345 247 345 263 345 255 b 344 82 345 205 344 124 b 346 41 344 68 344 54 b 379 1 349 18 362 3 b 417 35 395 -1 410 12 b 422 62 420 43 421 52 b 423 106 423 76 423 91 l 425 358 b 431 609 427 441 429 527 b 431 630 431 616 432 623 z "},"i":{"ha":232,"x_min":0,"x_max":0,"o":"m 162 134 b 158 252 160 173 159 213 b 150 600 155 358 153 494 b 147 634 150 612 149 623 b 108 667 142 655 127 668 b 71 633 90 667 74 653 b 70 599 69 622 69 610 b 76 326 73 516 76 405 b 82 133 78 259 80 196 b 82 61 83 109 82 85 b 85 30 82 51 82 40 b 122 0 89 11 104 0 b 157 28 138 0 151 11 b 160 52 159 36 160 44 b 162 134 163 79 163 107 z "},"j":{"ha":476,"x_min":0,"x_max":0,"o":"m 407 607 b 403 641 407 619 408 630 b 366 666 396 658 383 667 b 331 638 349 666 335 656 b 328 611 328 630 328 620 b 327 508 327 577 327 542 b 317 284 326 434 324 358 b 305 143 315 258 311 169 b 288 105 301 129 296 117 b 242 81 277 89 262 81 b 187 111 218 81 200 91 b 166 162 177 127 170 144 b 150 218 161 181 156 200 b 136 249 147 229 142 240 b 98 267 128 263 115 270 b 70 232 83 264 72 250 b 72 202 69 222 70 212 b 92 128 79 177 85 153 b 123 63 99 105 109 83 b 358 65 180 -19 303 -23 b 380 116 367 81 376 98 b 393 187 385 139 390 163 b 407 472 403 255 404 387 b 407 607 407 505 407 558 z "},"k":{"ha":517,"x_min":0,"x_max":0,"o":"m 446 52 b 433 80 443 61 438 71 b 345 204 413 116 370 172 b 214 377 301 262 257 320 b 216 412 201 396 201 396 b 301 516 244 443 273 484 b 357 582 320 538 338 560 b 375 615 365 592 372 602 b 359 660 380 632 373 650 b 311 653 343 669 326 667 b 302 643 308 650 305 646 b 177 487 264 591 220 535 b 162 469 171 481 167 475 b 152 463 158 465 154 461 b 150 474 150 464 150 472 b 149 491 150 480 149 485 b 150 606 150 522 150 575 b 148 637 151 617 151 627 b 110 666 141 655 127 667 b 74 638 93 666 80 655 b 70 604 70 627 70 616 b 70 372 70 534 70 442 b 85 59 67 268 79 164 b 90 32 85 50 87 41 b 99 14 92 26 95 19 b 156 18 114 -6 144 -4 b 165 51 162 28 165 39 b 162 96 164 66 163 81 b 150 281 158 158 154 220 b 150 309 150 291 150 300 b 152 324 150 312 150 321 b 161 314 154 323 159 315 b 172 301 165 310 168 305 b 235 215 193 272 213 243 b 368 34 275 163 337 92 b 383 15 372 27 378 20 b 430 6 398 1 416 -2 b 446 52 445 15 451 32 z "},"l":{"ha":458,"x_min":0,"x_max":0,"o":"m 400 75 b 374 82 392 80 383 81 b 298 84 349 86 323 85 b 195 81 264 83 229 81 b 175 101 178 80 177 82 b 174 111 174 104 174 107 b 154 485 165 220 159 376 b 149 612 152 527 151 569 b 141 645 148 623 147 635 b 101 666 133 660 118 668 b 70 633 85 663 73 651 b 70 613 69 627 69 620 b 71 578 70 601 71 590 b 88 187 72 464 82 302 b 99 57 90 144 94 100 b 164 0 103 13 118 0 b 195 0 174 0 184 0 b 263 3 217 1 240 2 b 263 4 263 4 263 4 b 363 4 297 4 330 4 b 390 6 372 5 382 4 b 422 39 408 10 421 23 b 400 75 422 55 414 67 z "},"m":{"ha":624,"x_min":0,"x_max":0,"o":"m 550 450 b 546 601 550 486 547 564 b 537 641 545 615 543 628 b 465 651 522 670 487 675 b 450 628 459 644 454 636 b 428 577 442 611 435 594 b 336 247 394 492 363 335 b 313 173 329 223 321 199 b 295 207 302 187 299 197 b 174 618 253 325 215 500 b 164 644 171 627 168 635 b 128 667 157 658 145 666 b 72 618 93 669 75 654 b 72 601 72 612 72 607 b 71 490 72 573 72 517 b 79 87 67 356 72 220 b 84 43 80 72 82 58 b 93 17 85 33 88 25 b 151 19 108 -7 138 -5 b 160 60 158 32 160 46 b 156 149 159 88 157 120 b 149 372 154 223 151 298 b 154 404 149 380 150 395 b 173 352 159 390 168 366 b 263 58 203 267 232 143 b 278 23 267 46 271 34 b 349 23 296 -5 330 -5 b 361 47 355 30 358 39 b 388 144 371 73 380 118 b 455 377 411 215 433 306 b 468 409 458 385 463 401 b 471 371 472 397 471 381 b 475 68 473 270 474 169 b 476 40 475 59 475 49 b 482 21 477 34 479 27 b 512 0 488 8 498 1 b 545 20 527 -1 538 7 b 553 50 550 30 552 40 b 554 95 553 65 554 80 b 550 450 553 213 552 331 z "},"n":{"ha":511,"x_min":0,"x_max":0,"o":"m 441 207 b 437 303 439 239 438 271 b 431 602 435 387 429 519 b 428 640 431 615 432 628 b 395 670 422 659 411 669 b 357 642 378 672 363 661 b 353 621 355 635 353 628 b 350 584 351 609 350 596 b 360 257 349 491 354 350 b 360 212 360 250 360 221 b 347 246 355 225 349 242 b 326 293 340 262 333 277 b 173 614 283 391 226 521 b 161 635 169 621 165 628 b 113 668 148 657 135 663 b 73 642 96 672 78 659 b 70 615 71 633 70 624 b 70 518 70 594 71 539 b 73 167 69 401 68 284 b 79 60 74 131 77 95 b 91 18 79 45 82 30 b 148 19 107 -4 134 -4 b 156 45 153 27 155 36 b 156 80 156 57 157 68 b 152 193 155 118 153 156 b 149 441 148 276 148 359 b 148 482 149 447 148 482 b 166 445 148 482 164 449 b 191 394 175 428 183 412 b 252 263 212 350 232 307 b 333 56 279 203 306 115 b 351 23 338 44 344 33 b 398 1 362 6 378 -3 b 435 38 419 4 430 19 b 439 65 437 46 438 56 b 441 207 441 103 442 169 z "},"o":{"ha":507,"x_min":0,"x_max":0,"o":"m 438 321 b 418 508 438 384 433 447 b 379 603 410 542 399 575 b 262 665 351 644 311 663 b 217 652 246 666 230 662 b 95 486 157 610 117 555 b 69 320 77 432 69 376 b 93 155 70 269 77 203 b 171 40 109 109 134 70 b 403 86 250 -24 351 -12 b 425 151 413 106 420 128 b 438 321 435 202 438 269 z m 349 178 b 340 142 347 166 344 154 b 325 111 336 131 331 120 b 241 89 299 76 275 74 b 211 111 229 94 220 102 b 163 198 188 136 172 165 b 171 461 142 281 144 379 b 216 545 181 492 195 521 b 263 579 229 560 244 572 b 293 577 274 583 283 582 b 326 535 310 567 319 552 b 348 452 338 508 344 480 b 355 400 351 435 354 417 b 358 318 357 373 357 345 b 349 178 357 276 357 219 z "},"p":{"ha":453,"x_min":0,"x_max":0,"o":"m 336 586 b 128 666 279 645 209 671 b 70 610 95 665 72 642 b 70 596 69 605 69 600 b 75 334 71 509 73 421 l 85 62 b 90 28 86 50 86 39 b 130 0 98 10 113 -1 b 163 35 147 2 160 15 b 164 73 164 47 164 60 b 157 255 161 133 159 194 b 157 283 156 264 157 273 b 166 292 157 288 161 291 b 183 294 172 293 177 293 b 283 319 218 296 251 305 b 377 430 332 340 364 377 b 336 586 392 489 377 542 z m 254 393 b 168 373 227 381 198 375 b 150 384 159 372 150 374 l 150 481 b 150 570 150 511 150 540 b 164 585 150 581 154 585 b 291 513 219 582 261 557 b 254 393 318 471 300 415 z "},"q":{"ha":564,"x_min":0,"x_max":0,"o":"m 494 40 b 483 69 491 50 488 60 b 459 107 476 82 468 95 b 451 151 448 121 445 134 b 464 229 460 176 463 203 b 453 420 466 289 463 361 b 408 571 445 472 431 523 b 298 663 385 618 348 650 b 169 628 249 676 205 667 b 131 575 154 612 142 594 b 71 372 96 512 76 444 b 114 133 65 293 80 205 b 187 43 131 97 155 66 b 376 39 243 4 312 -7 b 396 53 383 44 389 48 b 419 26 407 46 411 35 b 445 4 427 18 435 10 b 481 7 458 -2 470 -2 b 494 40 492 15 497 27 z m 378 216 b 354 240 366 221 361 232 b 329 269 345 250 338 260 b 309 287 323 276 316 282 b 261 282 293 297 274 295 b 256 235 248 270 246 252 b 270 216 260 228 265 222 b 338 133 293 188 315 161 b 335 108 347 122 346 117 b 236 106 303 83 274 82 b 190 160 216 119 201 138 b 153 278 170 197 158 236 b 200 536 142 364 158 459 b 231 577 209 551 218 565 b 272 588 243 588 256 592 b 333 541 299 580 320 566 b 353 494 341 526 347 510 b 386 276 377 426 382 343 b 385 251 386 265 386 258 b 378 216 383 239 390 225 z "},"r":{"ha":479,"x_min":0,"x_max":0,"o":"m 440 50 b 420 81 436 62 428 72 b 254 248 369 139 313 198 b 242 263 250 253 242 254 b 274 277 251 272 263 272 b 364 390 325 298 354 337 b 314 574 378 457 360 524 b 164 660 273 619 222 645 b 127 667 152 664 140 666 b 75 624 98 669 79 654 b 74 597 74 615 75 606 b 71 401 73 535 74 463 b 76 101 67 301 72 201 b 81 50 77 84 79 67 b 89 20 81 40 84 29 b 126 0 97 6 110 -2 b 155 26 141 3 151 12 b 158 57 157 36 158 47 b 154 136 157 83 155 110 b 150 215 153 162 152 189 b 171 210 162 217 166 213 b 266 130 206 187 237 160 b 358 31 297 100 330 64 b 393 4 368 20 379 9 b 432 8 407 -2 420 -2 b 440 50 443 18 446 33 z m 212 341 b 150 388 137 325 151 319 b 150 459 150 409 150 439 l 155 566 b 169 575 155 575 161 578 b 264 510 207 563 239 541 b 287 407 286 482 293 441 b 239 349 282 379 266 358 b 212 341 230 346 221 343 z "},"s":{"ha":474,"x_min":0,"x_max":0,"o":"m 395 509 b 369 580 391 535 382 558 b 282 655 350 616 320 641 b 138 628 229 675 180 666 b 77 425 78 573 56 505 b 138 319 88 384 108 349 b 229 214 167 291 198 248 b 275 148 248 196 260 171 b 291 118 281 139 287 129 b 264 81 298 97 286 82 b 228 90 251 80 239 83 b 204 109 219 96 211 103 b 165 144 191 121 178 132 b 133 163 156 152 145 159 b 98 155 120 167 107 165 b 90 119 88 144 86 133 b 106 93 94 109 99 101 b 183 24 129 68 154 44 b 261 0 206 9 232 0 b 368 139 339 -1 388 64 b 344 189 363 157 354 173 b 271 277 327 215 293 255 b 203 362 245 303 227 332 b 179 394 194 373 187 382 b 181 558 139 451 138 508 b 278 567 211 594 250 589 b 304 534 289 558 298 547 b 319 475 313 516 317 496 b 324 403 321 451 322 427 b 326 379 325 395 324 387 b 364 346 330 358 345 346 b 401 376 382 346 397 358 b 404 420 404 390 403 406 b 395 509 404 450 399 480 z "},"t":{"ha":503,"x_min":0,"x_max":0,"o":"m 414 662 b 395 668 408 666 401 668 b 350 670 380 670 365 670 b 151 667 283 667 217 670 b 106 661 136 666 121 663 b 82 648 97 660 89 655 b 72 608 71 637 66 623 b 108 581 77 592 91 581 b 125 584 114 581 120 583 b 191 589 147 586 169 588 b 205 568 201 590 205 579 b 206 541 206 559 206 550 b 206 326 206 464 206 403 b 214 68 203 240 208 154 b 224 22 215 52 217 36 b 260 0 232 6 245 -1 b 289 26 276 2 284 12 b 293 84 295 45 294 65 b 283 335 287 168 282 251 b 285 478 284 389 284 424 b 285 564 285 505 285 536 b 305 587 285 585 286 585 b 364 592 325 589 344 590 b 416 607 382 594 400 597 b 414 662 439 622 438 650 z "},"u":{"ha":518,"x_min":0,"x_max":0,"o":"m 447 613 b 438 649 447 625 444 638 b 405 669 431 662 420 670 b 373 647 389 669 379 660 b 367 609 368 635 367 622 b 368 445 367 572 368 483 b 358 246 369 378 366 312 b 338 148 354 213 348 180 b 319 104 334 132 328 117 b 269 80 306 87 291 78 b 176 152 219 83 190 104 b 168 182 173 162 170 172 b 159 264 165 209 161 237 b 149 603 152 358 152 509 b 146 638 149 615 149 627 b 111 670 143 657 129 669 b 71 638 92 671 76 658 b 69 611 69 630 69 620 b 72 416 70 565 71 462 b 73 416 72 416 72 416 b 75 351 73 394 75 373 b 83 213 76 305 79 259 b 103 119 87 181 93 150 b 223 8 122 59 162 22 b 274 0 239 4 257 1 b 364 35 308 -1 339 11 b 401 89 380 50 392 68 b 421 151 410 109 416 129 b 445 328 436 209 441 268 b 447 613 451 406 448 535 z "},"v":{"ha":526,"x_min":0,"x_max":0,"o":"m 455 640 b 422 667 449 655 439 665 b 386 646 406 668 393 661 b 377 620 382 638 379 629 b 320 289 364 534 341 374 b 272 142 308 239 292 190 b 255 116 269 134 267 124 b 244 147 251 127 247 137 b 150 618 204 277 173 483 b 140 650 148 629 147 640 b 102 668 131 664 118 670 b 72 642 87 665 77 656 b 70 619 70 635 69 627 b 76 578 72 605 73 591 b 123 283 89 503 105 356 b 184 75 141 213 161 143 b 205 28 189 58 195 42 b 296 21 229 -7 267 -9 b 325 67 308 35 317 51 b 370 176 343 102 357 139 b 424 454 393 242 408 386 b 455 606 437 504 448 555 b 455 640 457 617 459 629 z "},"w":{"ha":681,"x_min":0,"x_max":0,"o":"m 609 637 b 578 665 604 652 593 664 b 543 648 563 667 551 660 b 531 612 535 637 533 625 b 490 296 517 523 504 384 b 474 198 485 264 481 231 b 462 213 465 201 464 207 b 428 386 451 253 439 345 b 372 628 409 459 391 555 b 326 667 365 655 347 669 b 287 625 306 665 292 651 b 280 570 284 607 283 588 b 233 230 265 481 249 319 b 225 204 231 221 231 212 b 214 233 217 212 216 223 b 173 489 200 301 186 420 b 151 614 165 529 159 575 b 140 650 149 626 147 639 b 98 667 130 664 115 671 b 70 636 84 664 72 652 b 71 609 69 627 69 618 b 127 261 89 512 107 358 b 173 64 140 196 157 128 b 186 28 176 52 180 39 b 265 27 204 -7 245 -7 b 276 52 270 35 274 44 b 297 139 283 80 291 111 b 331 376 309 201 320 314 b 335 389 332 380 333 385 b 339 393 335 391 337 392 b 344 391 341 395 343 393 b 347 381 345 387 346 384 b 431 54 369 287 402 145 b 452 14 436 39 441 25 b 520 20 472 -7 504 -4 b 531 45 525 27 528 36 b 538 86 534 58 536 72 b 583 432 553 184 568 334 b 609 602 592 489 600 546 b 609 637 611 614 612 625 z "},"x":{"ha":500,"x_min":0,"x_max":0,"o":"m 430 40 b 417 83 430 56 423 69 b 307 315 381 156 344 243 b 304 367 298 334 297 349 b 379 581 328 436 353 513 b 389 613 383 591 387 602 b 370 664 395 637 387 657 b 319 640 352 671 332 663 b 303 605 313 629 308 617 b 255 467 287 563 271 510 b 244 451 253 462 252 456 b 211 503 236 458 215 495 b 154 625 192 544 173 585 b 134 657 149 637 144 648 b 93 665 122 668 108 672 b 70 626 77 658 69 644 b 79 597 70 615 75 606 b 175 385 111 529 143 452 b 184 366 178 379 181 373 b 204 324 188 359 207 332 b 195 302 201 317 198 309 b 101 84 168 227 135 155 b 88 55 96 74 92 65 b 105 5 79 34 89 13 b 156 19 122 -5 143 1 b 171 46 162 27 167 37 b 244 206 196 99 221 152 b 257 230 247 214 248 224 b 274 200 267 222 269 210 b 346 45 298 153 323 93 b 370 11 352 33 359 21 b 411 3 382 0 396 -3 b 430 40 424 8 431 23 z "},"y":{"ha":563,"x_min":0,"x_max":0,"o":"m 447 667 b 420 647 435 664 426 657 b 411 621 416 639 413 630 b 326 376 388 550 349 447 b 311 347 323 366 322 353 b 289 378 300 355 295 367 b 152 629 247 453 197 556 b 135 654 147 638 142 647 b 91 663 123 667 106 670 b 70 620 75 656 67 639 b 77 601 72 613 74 607 b 91 577 81 593 86 585 b 214 349 131 511 176 416 b 268 262 230 319 247 289 b 280 227 277 251 279 240 b 287 76 282 177 284 126 b 292 38 288 63 290 51 b 306 11 293 28 298 18 b 360 15 321 -5 346 -3 b 369 44 366 24 369 33 b 366 96 368 61 367 78 b 360 213 364 135 362 174 b 367 260 359 229 361 244 b 487 598 409 359 453 495 b 493 625 489 606 492 615 b 447 667 495 651 472 671 z "},"z":{"ha":522,"x_min":0,"x_max":0,"o":"m 438 67 b 412 77 430 73 421 75 b 337 81 387 82 362 81 b 186 84 314 82 209 82 b 161 96 177 84 168 86 b 185 145 169 112 176 128 b 284 334 218 208 251 271 b 418 570 330 420 375 483 b 431 602 423 581 428 591 b 393 663 440 634 425 657 b 366 664 384 664 375 664 b 115 661 282 662 199 671 b 89 653 106 660 97 657 b 70 612 74 645 67 629 b 103 581 73 596 86 584 b 127 582 111 580 119 582 b 293 587 176 592 228 589 b 332 584 305 587 317 586 b 324 558 330 574 327 564 b 207 359 285 484 247 432 b 93 138 168 286 131 212 b 77 101 87 126 81 114 b 105 26 67 70 77 44 b 140 12 116 20 127 16 b 403 3 200 -4 342 -1 b 423 8 410 4 417 6 b 439 15 429 9 434 12 b 438 67 458 29 457 54 z "},"{":{"ha":332,"x_min":0,"x_max":0,"o":"m 234 9 b 198 63 209 19 200 39 b 196 135 196 87 195 111 b 159 298 196 193 186 247 b 161 326 153 309 154 317 b 191 468 191 369 198 417 b 189 492 190 476 189 484 b 187 553 188 512 185 533 b 236 634 189 588 201 618 b 245 639 239 635 242 637 b 261 681 259 650 265 666 b 222 709 255 698 240 709 b 166 685 205 709 184 700 b 111 591 137 660 120 628 b 107 506 104 563 104 534 b 113 437 109 483 111 460 b 94 369 115 412 108 389 b 82 352 90 363 86 357 b 78 280 67 329 65 305 b 85 268 80 276 83 272 b 113 180 100 241 109 211 b 117 94 118 152 116 123 b 125 19 117 69 118 44 b 172 -47 134 -8 149 -30 b 224 -56 188 -58 206 -61 b 252 -24 240 -51 250 -40 b 234 9 255 -9 248 4 z "},"|":{"ha":242,"x_min":0,"x_max":0,"o":"m 171 34 b 160 330 167 133 164 232 b 159 330 159 330 159 330 b 159 416 159 359 160 388 b 151 681 156 505 154 593 b 146 725 150 696 149 711 b 107 757 142 746 126 758 b 70 722 88 756 73 743 b 70 684 69 710 70 697 b 77 481 72 617 75 549 b 91 34 82 332 86 183 b 96 -34 92 11 94 -12 b 106 -67 96 -46 99 -57 b 164 -64 121 -87 151 -86 b 172 -31 170 -54 173 -43 b 171 34 172 -9 172 13 z "},"}":{"ha":333,"x_min":0,"x_max":0,"o":"m 247 322 b 236 336 243 327 240 331 b 211 392 223 352 214 371 b 206 440 209 408 207 424 b 194 590 201 490 202 540 b 172 666 189 617 183 642 b 137 708 164 683 153 698 b 109 717 128 714 119 717 b 74 697 93 717 81 710 b 76 658 67 684 68 671 b 85 648 79 654 82 650 b 110 603 100 637 106 620 b 118 556 113 588 116 572 b 125 450 121 521 123 485 b 175 285 128 390 135 333 b 177 262 181 278 180 270 b 167 133 162 220 162 177 b 173 92 168 119 171 106 b 172 11 179 65 181 38 b 172 -27 168 -2 168 -14 b 225 -43 180 -50 205 -57 b 246 -12 235 -35 242 -24 b 257 55 255 9 258 32 b 247 133 257 82 252 108 b 258 252 240 174 242 213 b 247 322 269 277 265 301 z "},"~":{"ha":493,"x_min":0,"x_max":0,"o":"m 379 421 b 355 408 370 418 362 413 b 337 392 348 403 343 397 b 289 389 316 374 313 373 b 255 413 278 397 267 406 b 192 431 238 424 218 431 b 73 343 146 432 89 391 b 69 323 71 336 70 329 b 96 283 69 303 79 289 b 140 301 112 277 130 284 b 153 325 145 309 148 318 b 224 338 172 352 197 357 b 258 315 235 331 246 322 b 384 327 305 287 343 291 b 412 357 394 336 403 346 b 424 388 420 366 424 376 b 379 421 423 413 402 429 z "},"":{"ha":250,"x_min":0,"x_max":0,"o":""},"":{"ha":506,"x_min":0,"x_max":0,"o":"m 405 659 b 388 660 399 660 393 661 b 295 656 357 659 326 659 b 232 639 273 655 252 648 b 160 564 197 624 174 599 b 147 518 154 549 149 534 b 142 429 142 488 141 459 b 143 400 142 402 143 427 b 126 383 142 388 140 385 b 93 377 115 382 103 382 b 70 345 79 371 71 360 b 90 308 68 329 76 316 b 117 302 98 304 107 302 b 137 303 123 302 130 303 b 144 297 141 303 144 300 b 147 269 146 288 147 279 b 151 63 149 227 150 106 b 158 23 151 49 153 36 b 207 -7 168 1 184 -10 b 337 2 251 -2 294 -4 b 366 12 347 3 357 7 b 385 50 379 21 388 33 b 352 79 383 65 370 77 b 310 78 338 81 324 80 b 253 69 291 75 272 72 b 229 98 233 67 230 79 b 226 283 228 133 227 248 b 257 319 226 313 226 313 b 299 332 271 322 286 324 b 319 366 312 340 320 350 b 292 394 317 382 306 390 b 263 399 281 398 270 398 b 237 397 251 398 244 397 b 223 411 226 397 224 399 b 222 467 221 447 220 432 b 227 515 222 483 224 499 b 287 574 234 549 255 567 b 345 580 306 578 325 580 b 403 584 364 580 384 581 b 435 622 424 587 436 603 b 405 659 435 640 423 654 z "},"":{"ha":0,"x_min":0,"x_max":0,"o":""},"":{"ha":378,"x_min":0,"x_max":0,"o":"m 294 665 b 213 728 277 699 250 720 b 182 732 202 731 190 731 b 104 705 150 733 123 728 b 76 576 73 667 61 624 b 171 491 90 529 125 502 b 309 595 239 475 305 526 b 294 665 310 619 304 642 z m 206 571 b 150 621 175 563 145 589 b 156 640 151 628 154 634 b 178 653 161 650 168 654 b 229 601 209 651 226 639 b 206 571 229 586 220 575 z "},"":{"ha":511,"x_min":0,"x_max":0,"o":"m 441 42 b 437 79 440 52 439 69 b 337 510 402 230 370 403 b 303 611 327 544 315 577 b 279 652 298 626 291 641 b 207 648 257 674 227 673 b 194 624 202 641 197 632 b 179 585 188 611 184 598 b 132 406 159 527 145 466 b 71 61 116 327 96 182 b 70 50 71 57 70 52 b 98 3 68 24 79 7 b 146 32 119 -3 137 8 b 151 51 148 38 150 45 b 174 163 159 89 166 126 b 185 239 178 181 181 221 b 203 255 188 253 189 254 b 289 259 231 256 260 258 b 324 230 316 259 316 263 b 353 87 334 189 343 127 b 367 34 357 71 362 50 b 386 7 370 23 377 14 b 436 19 404 -6 426 0 b 441 42 440 26 442 34 z m 208 338 b 245 523 208 369 228 479 b 292 340 262 491 290 372 b 208 338 264 336 236 336 z m 202 810 b 233 748 212 789 222 768 b 246 726 237 740 241 733 b 264 711 251 719 257 714 b 303 730 282 701 299 710 b 303 736 303 733 303 736 b 295 772 303 750 300 761 b 258 847 283 797 270 822 b 250 859 256 851 253 856 b 211 868 241 871 224 874 b 194 834 199 862 191 848 b 202 810 195 826 199 818 z "},"":{"ha":511,"x_min":0,"x_max":0,"o":"m 441 42 b 437 79 440 52 439 69 b 337 510 402 230 370 403 b 303 611 327 544 315 577 b 279 652 298 626 291 641 b 207 648 257 674 227 673 b 194 624 202 641 197 632 b 179 585 188 611 184 598 b 132 406 159 527 145 466 b 71 61 116 327 96 182 b 70 50 71 57 70 52 b 98 3 68 24 79 7 b 146 32 119 -3 137 8 b 151 51 148 38 150 45 b 174 163 159 89 166 126 b 185 239 178 181 181 221 b 203 255 188 253 189 254 b 289 259 231 256 260 258 b 324 230 316 259 316 263 b 353 87 334 189 343 127 b 367 34 357 71 362 50 b 386 7 370 23 377 14 b 436 19 404 -6 426 0 b 441 42 440 26 442 34 z m 208 338 b 245 523 208 369 228 479 b 292 340 262 491 290 372 b 208 338 264 336 236 336 z m 210 712 b 216 714 213 713 215 714 b 244 738 228 721 237 729 b 296 803 262 759 279 781 b 304 815 299 807 302 811 b 295 855 310 829 306 845 b 257 856 285 863 268 864 b 239 837 250 851 244 844 b 196 783 224 820 210 801 b 181 761 190 776 186 769 b 175 739 178 755 176 747 b 210 712 175 719 190 707 z "},"":{"ha":511,"x_min":0,"x_max":0,"o":"m 441 42 b 437 79 440 52 439 69 b 337 510 402 230 370 403 b 303 611 327 544 315 577 b 279 652 298 626 291 641 b 207 648 257 674 227 673 b 194 624 202 641 197 632 b 179 585 188 611 184 598 b 132 406 159 527 145 466 b 71 61 116 327 96 182 b 70 50 71 57 70 52 b 98 3 68 24 79 7 b 146 32 119 -3 137 8 b 151 51 148 38 150 45 b 174 163 159 88 166 126 b 185 239 178 181 181 221 b 203 255 188 253 189 254 b 289 259 231 256 260 258 b 324 230 316 259 316 263 b 353 87 334 189 343 127 b 367 34 357 71 362 50 b 386 7 370 23 377 14 b 436 19 404 -6 426 0 b 441 42 440 26 442 34 z m 208 338 b 245 523 208 369 228 479 b 292 340 262 491 290 372 b 208 338 264 336 236 336 z m 196 707 b 201 710 198 708 201 710 b 229 734 214 717 222 725 b 255 770 237 746 246 758 b 269 741 260 760 264 750 b 283 718 273 733 278 726 b 301 703 288 712 293 707 b 340 723 319 694 336 703 b 340 729 340 726 340 729 b 332 765 340 743 337 754 b 295 841 320 790 307 815 b 287 853 293 845 290 849 b 248 861 277 864 261 868 b 239 855 245 860 242 858 b 236 853 238 855 237 854 b 219 834 230 848 224 841 b 178 778 205 816 191 797 b 165 755 173 771 169 763 b 160 733 161 748 160 741 b 196 707 160 713 176 701 z "},"":{"ha":511,"x_min":0,"x_max":0,"o":"m 441 42 b 437 79 440 52 439 69 b 337 510 402 230 370 403 b 303 611 327 544 315 577 b 279 652 298 626 291 641 b 207 648 257 674 227 673 b 194 624 202 641 197 632 b 179 585 188 611 184 598 b 132 406 159 527 145 466 b 71 61 116 327 96 182 b 70 50 71 57 70 52 b 98 3 68 24 79 7 b 146 32 119 -3 137 8 b 151 51 148 38 150 45 b 174 163 159 88 166 126 b 185 239 178 181 181 221 b 203 255 188 253 189 254 b 289 259 231 256 260 258 b 324 230 316 259 316 263 b 353 87 334 189 343 127 b 367 34 357 71 362 50 b 386 7 370 23 377 14 b 436 19 404 -6 426 0 b 441 42 440 26 442 34 z m 208 338 b 245 523 208 369 228 479 b 292 340 262 491 290 372 b 208 338 264 336 236 336 z m 149 709 b 180 722 160 705 172 710 b 189 739 183 728 185 734 b 239 749 202 759 220 762 b 263 732 247 743 255 737 b 353 741 297 712 324 715 b 373 762 360 747 367 754 b 381 784 378 768 381 776 b 349 807 381 801 366 813 b 332 798 343 805 337 802 b 319 787 328 795 324 790 b 286 785 305 774 302 774 b 262 802 278 790 270 797 b 217 815 249 810 235 815 b 132 752 184 815 143 786 b 130 738 131 747 130 742 b 149 709 129 724 136 713 z "},"":{"ha":511,"x_min":0,"x_max":0,"o":"m 441 42 b 437 79 440 52 439 69 b 337 510 402 230 370 403 b 303 611 327 544 315 577 b 279 652 298 626 291 641 b 207 648 257 674 227 673 b 194 624 202 641 197 632 b 179 585 188 611 184 598 b 132 406 159 527 145 466 b 71 61 116 327 96 182 b 70 50 71 57 70 52 b 98 3 68 24 79 7 b 146 32 119 -3 137 8 b 151 51 148 38 150 45 b 174 163 159 88 166 126 b 185 239 178 181 181 221 b 203 255 188 253 189 254 b 289 259 231 256 260 258 b 324 230 316 259 316 263 b 353 87 334 189 343 127 b 367 34 357 71 362 50 b 386 7 370 23 377 14 b 436 19 404 -6 426 0 b 441 42 440 26 442 34 z m 208 338 b 245 523 208 369 228 479 b 292 340 262 491 290 372 b 208 338 264 336 236 336 z m 166 746 b 203 759 180 746 189 749 b 217 798 217 769 222 781 b 198 828 214 809 207 820 b 148 835 183 840 166 844 b 118 789 129 826 117 811 b 166 746 118 764 139 746 z m 314 746 b 351 759 328 746 337 749 b 365 798 366 769 370 781 b 346 828 362 809 356 820 b 296 835 331 840 314 844 b 266 789 277 826 266 811 b 314 746 266 764 287 746 z "},"":{"ha":507,"x_min":0,"x_max":0,"o":"m 436 68 b 411 94 433 82 424 90 b 373 94 398 97 386 96 b 336 86 361 92 349 89 b 212 118 289 74 248 87 b 160 213 183 143 168 176 b 150 335 151 249 150 298 b 173 495 149 390 157 443 b 198 548 179 513 186 531 b 220 574 204 557 211 566 b 268 579 234 587 250 587 b 292 559 277 574 285 567 b 321 509 305 544 315 528 b 345 387 334 477 342 421 b 347 366 345 380 345 373 b 381 337 351 350 365 338 b 420 365 398 336 416 348 b 423 392 423 374 424 383 b 380 572 420 448 406 523 b 347 617 371 589 360 604 b 142 608 294 674 206 690 b 98 523 122 582 108 553 b 78 214 67 426 62 314 b 97 148 82 191 88 169 b 195 32 116 98 150 59 b 250 8 212 21 231 13 l 228 -63 b 224 -79 225 -68 223 -74 b 267 -103 226 -91 229 -104 b 272 -103 268 -103 270 -103 b 316 -140 298 -105 313 -113 b 296 -160 316 -150 308 -158 b 285 -161 292 -161 288 -161 b 282 -161 284 -161 283 -161 b 257 -213 255 -159 220 -189 b 266 -216 260 -215 262 -215 b 384 -144 324 -227 381 -192 b 371 -95 385 -127 380 -110 b 302 -51 357 -71 333 -57 b 296 -50 300 -51 298 -50 l 315 1 b 404 22 345 3 375 12 b 424 34 411 25 418 29 b 436 68 435 43 439 55 z "},"":{"ha":429,"x_min":0,"x_max":0,"o":"m 347 67 b 324 78 342 73 335 77 b 286 79 311 79 298 80 b 187 74 253 76 220 78 b 167 102 170 72 168 87 b 159 267 164 156 162 213 b 159 281 159 271 159 276 b 170 292 160 287 163 291 b 197 293 179 292 188 293 b 256 298 217 295 236 297 b 285 308 266 299 276 303 b 282 368 308 324 306 354 b 245 375 270 374 258 376 b 173 373 221 375 197 373 b 154 390 157 372 154 375 b 151 548 152 443 151 496 b 186 584 150 586 149 585 b 296 582 222 583 259 583 b 339 592 311 582 326 584 b 339 651 363 606 363 637 b 320 659 333 655 327 658 b 275 663 305 661 290 662 b 151 665 234 664 193 664 b 117 666 140 665 128 666 b 70 620 91 664 73 646 b 70 606 69 615 69 611 b 74 387 72 523 69 441 b 85 135 78 285 81 208 b 93 42 87 104 89 73 b 142 2 97 13 113 2 b 160 2 148 2 154 2 b 265 0 197 1 230 1 b 313 2 282 0 298 -1 b 347 15 326 4 337 6 b 347 67 364 30 362 52 z m 168 810 b 199 748 178 789 188 768 b 212 726 203 740 207 733 b 230 711 217 719 223 714 b 269 730 248 701 265 710 b 269 736 269 733 269 736 b 261 772 269 750 266 761 b 224 847 249 797 236 822 b 216 859 222 851 219 856 b 177 868 206 871 190 874 b 160 834 165 862 157 848 b 168 810 161 826 164 818 z "},"":{"ha":429,"x_min":0,"x_max":0,"o":"m 347 67 b 324 78 342 73 335 77 b 286 79 311 79 298 80 b 187 74 253 76 220 78 b 167 102 170 72 168 87 b 159 267 164 156 162 213 b 159 281 159 271 159 276 b 170 292 160 287 163 291 b 197 293 179 292 188 293 b 256 298 217 295 236 297 b 285 308 266 299 276 303 b 282 368 308 324 306 354 b 245 375 270 374 258 376 b 173 373 221 375 197 373 b 154 390 157 372 154 375 b 151 548 152 443 151 496 b 186 584 150 586 149 585 b 296 582 222 583 259 583 b 339 592 311 582 326 584 b 339 651 363 606 363 637 b 320 659 333 655 327 658 b 275 663 305 661 290 662 b 151 665 234 664 193 664 b 117 666 140 665 128 666 b 70 620 91 664 73 646 b 70 606 69 615 69 611 b 74 387 72 523 69 441 b 85 135 78 285 81 208 b 93 42 87 104 89 73 b 142 2 97 13 113 2 b 160 2 148 2 154 2 b 265 0 197 1 230 1 b 313 2 282 0 298 -1 b 347 15 326 4 337 6 b 347 67 364 30 362 52 z m 183 712 b 189 714 186 713 188 714 b 217 738 202 721 210 729 b 269 803 235 759 252 781 b 277 815 272 807 275 811 b 268 855 283 829 279 845 b 230 856 258 863 241 864 b 212 837 223 851 217 844 b 169 783 197 820 183 801 b 155 761 163 776 159 769 b 149 739 151 755 149 747 b 183 712 148 719 164 707 z "},"":{"ha":429,"x_min":0,"x_max":0,"o":"m 347 67 b 324 78 342 73 335 77 b 286 79 311 79 298 80 b 187 74 253 75 220 78 b 167 102 170 72 168 87 b 159 267 164 156 162 213 b 159 281 159 271 159 276 b 170 292 160 287 163 291 b 197 293 179 292 188 293 b 256 298 217 295 236 297 b 285 308 266 299 276 303 b 282 368 308 324 306 354 b 245 375 270 374 258 376 b 173 373 221 375 197 373 b 154 390 157 372 154 375 b 151 548 152 443 151 496 b 186 584 150 586 149 585 b 296 582 222 583 259 583 b 339 592 311 582 326 584 b 339 651 363 606 363 637 b 320 659 333 655 327 658 b 275 663 305 661 290 662 b 151 665 234 664 193 664 b 117 666 140 665 128 666 b 70 620 91 664 73 646 b 70 606 69 615 69 611 b 74 387 72 523 69 441 b 85 135 78 285 81 208 b 93 42 87 104 89 73 b 142 2 97 13 113 2 b 160 2 148 2 154 2 b 265 0 197 1 230 1 b 313 2 282 0 298 -1 b 347 15 326 4 337 6 b 347 67 364 30 362 52 z m 160 708 b 165 710 162 709 165 710 b 193 735 178 717 186 726 b 219 770 202 747 210 759 b 233 741 224 761 229 751 b 247 719 237 733 242 726 b 265 704 252 713 258 708 b 304 723 283 695 301 704 b 304 730 304 726 304 729 b 296 765 304 744 301 755 b 259 841 284 791 271 816 b 251 853 257 845 254 850 b 212 862 241 865 225 868 b 203 856 209 860 206 858 b 200 854 202 855 201 855 b 183 835 194 849 188 842 b 142 778 169 816 155 797 b 129 756 137 771 133 764 b 124 733 125 749 124 741 b 160 708 124 713 141 702 z "},"":{"ha":429,"x_min":0,"x_max":0,"o":"m 347 67 b 324 78 342 73 335 77 b 286 79 311 79 298 80 b 187 74 253 76 220 78 b 167 102 170 72 168 87 b 159 267 164 156 162 213 b 159 281 159 271 159 276 b 170 292 160 287 163 291 b 197 293 179 292 188 293 b 256 298 217 295 236 297 b 285 308 266 299 276 303 b 282 368 308 324 306 354 b 245 375 270 374 258 376 b 173 373 221 375 197 373 b 154 390 157 372 154 375 b 151 548 152 443 151 496 b 186 584 150 586 149 585 b 296 582 222 583 259 583 b 339 592 311 582 326 584 b 339 651 363 606 363 637 b 320 659 333 655 327 658 b 275 663 305 661 290 662 b 151 665 234 664 193 664 b 117 666 140 665 128 666 b 70 620 91 664 73 646 b 70 606 69 615 69 611 b 74 387 72 523 69 441 b 85 135 78 285 81 208 b 93 42 87 104 89 73 b 142 2 97 13 113 2 b 160 2 148 2 154 2 b 265 0 197 1 230 1 b 313 2 282 0 298 -1 b 347 15 326 4 337 6 b 347 67 364 30 362 52 z m 138 743 b 175 756 152 743 161 746 b 189 795 189 766 194 778 b 170 825 185 806 179 817 b 120 832 155 837 138 841 b 90 786 101 823 89 808 b 138 743 90 762 111 743 z m 286 743 b 323 756 300 743 309 746 b 337 795 337 766 342 778 b 318 825 334 806 328 817 b 268 832 303 837 286 841 b 238 786 249 823 238 808 b 286 743 238 762 259 743 z "},"":{"ha":249,"x_min":0,"x_max":0,"o":"m 168 252 b 160 600 165 358 162 494 b 156 634 159 612 159 623 b 118 667 152 655 137 668 b 80 633 100 667 84 653 b 79 599 78 622 79 610 b 85 326 83 516 86 405 b 92 133 88 259 90 196 b 92 61 92 109 91 85 b 94 30 92 51 92 40 b 131 0 99 11 114 0 b 166 28 147 0 161 11 b 170 52 168 36 169 44 b 171 134 172 79 173 107 b 168 252 170 173 169 213 z m 171 772 b 134 847 159 797 147 822 b 126 859 132 851 129 856 b 87 868 117 871 100 874 b 70 834 75 862 67 848 b 78 810 71 826 75 818 b 109 748 88 789 98 768 b 122 726 113 740 118 733 b 140 711 127 719 133 714 b 179 730 158 701 176 710 b 180 736 179 733 180 736 b 171 772 179 750 176 761 z "},"":{"ha":271,"x_min":0,"x_max":0,"o":"m 177 252 b 169 600 175 358 172 494 b 166 634 169 612 168 623 b 128 667 162 655 146 668 b 90 633 109 667 93 653 b 89 599 88 622 88 610 b 95 326 93 516 95 405 b 101 133 97 259 99 196 b 101 61 102 109 101 85 b 104 30 101 51 101 40 b 141 0 108 11 123 0 b 176 28 157 0 170 11 b 180 52 178 36 179 44 b 181 134 182 79 182 107 b 177 252 179 173 178 213 z m 189 855 b 151 856 179 863 162 864 b 132 837 144 851 138 844 b 89 783 118 820 104 801 b 75 761 84 776 80 769 b 69 739 72 755 70 747 b 104 712 69 719 84 707 b 110 714 106 713 109 714 b 138 738 122 721 131 729 b 190 803 156 759 173 781 b 198 815 193 807 196 811 b 189 855 204 829 200 845 z "},"":{"ha":319,"x_min":0,"x_max":0,"o":"m 203 252 b 195 600 200 358 198 494 b 192 634 195 612 194 623 b 153 667 187 655 172 668 b 115 633 135 667 119 653 b 115 599 114 622 114 610 b 121 326 118 516 121 405 b 127 133 123 259 125 196 b 127 61 127 109 126 85 b 129 30 127 51 127 40 b 166 0 134 11 149 0 b 201 28 182 0 196 11 b 205 52 204 36 204 44 b 207 134 208 79 208 107 b 203 252 205 173 204 213 z m 241 766 b 204 842 229 791 217 816 b 197 854 202 846 200 850 b 157 862 187 865 170 869 b 149 856 154 861 151 859 b 146 854 148 856 147 855 b 128 835 139 849 133 842 b 88 779 114 817 101 798 b 74 756 83 772 78 764 b 69 734 71 749 69 742 b 105 708 70 714 86 702 b 111 711 108 709 110 711 b 138 735 123 718 131 726 b 164 771 147 747 156 759 b 179 742 169 761 174 751 b 193 719 183 734 188 727 b 210 704 197 713 203 708 b 249 724 228 695 246 704 b 250 730 250 727 250 730 b 241 766 250 744 246 755 z "},"":{"ha":389,"x_min":0,"x_max":0,"o":"m 237 252 b 229 600 235 358 232 494 b 226 634 229 612 228 623 b 188 667 222 655 206 668 b 150 633 169 667 153 653 b 149 599 148 622 149 610 b 155 326 153 516 155 405 b 161 133 157 259 160 196 b 161 61 162 109 161 85 b 164 30 161 51 161 40 b 201 0 168 11 183 0 b 236 28 217 0 230 11 b 240 52 238 36 239 44 b 241 134 242 79 242 107 b 237 252 240 173 238 213 z m 169 795 b 150 825 165 806 159 817 b 99 832 135 837 117 841 b 69 786 81 823 69 808 b 118 743 70 762 91 743 b 155 756 132 743 141 746 b 169 795 169 766 174 778 z m 317 795 b 298 825 314 806 308 817 b 248 832 283 837 266 841 b 218 786 229 823 218 808 b 266 743 218 762 239 743 b 303 756 280 743 289 746 b 317 795 317 766 322 778 z "},"":{"ha":511,"x_min":0,"x_max":0,"o":"m 441 207 b 437 303 439 239 438 271 b 431 602 435 387 429 519 b 428 640 431 615 432 628 b 395 670 422 659 411 669 b 357 642 378 672 363 661 b 353 621 355 635 353 628 b 350 584 351 609 350 596 b 360 257 349 491 354 350 b 360 212 360 250 360 221 b 347 246 355 225 349 242 b 326 293 340 262 333 277 b 173 614 283 391 226 521 b 161 635 169 621 165 628 b 113 668 148 657 135 663 b 73 642 96 672 78 659 b 70 615 71 633 70 624 b 70 518 70 594 71 539 b 73 167 69 401 68 284 b 79 60 74 131 77 95 b 91 18 79 45 82 30 b 148 19 107 -4 134 -4 b 156 45 153 27 155 36 b 156 80 156 57 157 68 b 152 193 155 118 153 156 b 149 442 148 276 148 359 b 148 482 149 447 148 482 b 166 445 148 482 164 449 b 191 394 175 428 183 412 b 252 263 212 350 232 307 b 333 56 279 203 306 115 b 351 23 338 44 344 33 b 398 1 362 6 378 -3 b 435 38 419 4 430 19 b 439 65 437 46 438 56 b 441 207 441 103 442 169 z m 149 709 b 180 722 160 705 173 710 b 189 739 183 728 186 734 b 239 749 202 759 220 762 b 263 732 247 743 255 737 b 353 741 297 712 324 715 b 373 762 360 747 367 754 b 381 784 379 768 381 776 b 349 807 381 801 366 813 b 332 798 343 805 338 802 b 319 787 328 795 324 790 b 286 785 305 774 302 774 b 262 802 278 790 270 797 b 217 815 249 810 235 815 b 132 752 184 815 143 786 b 130 738 131 747 130 742 b 149 709 129 724 136 713 z "},"":{"ha":507,"x_min":0,"x_max":0,"o":"m 438 321 b 418 508 438 384 433 447 b 379 603 410 542 399 575 b 262 665 351 644 311 663 b 217 652 246 666 230 662 b 95 486 157 610 117 555 b 69 320 77 432 69 376 b 93 155 70 269 77 203 b 171 40 109 109 134 70 b 403 86 250 -24 351 -12 b 425 151 413 106 420 128 b 438 321 435 202 438 269 z m 349 178 b 340 142 347 166 344 154 b 325 111 336 131 331 120 b 241 89 299 76 275 74 b 211 111 229 94 220 102 b 163 198 188 136 172 165 b 171 461 142 281 144 379 b 216 545 181 492 195 521 b 263 579 229 560 244 572 b 293 577 274 583 283 582 b 326 535 310 567 319 552 b 348 452 338 508 344 480 b 355 400 351 435 354 417 b 358 318 357 373 357 345 b 349 178 357 276 357 219 z m 207 810 b 238 748 217 789 227 768 b 252 726 242 740 247 733 b 269 711 256 719 262 714 b 308 730 287 701 305 710 b 309 736 309 733 309 736 b 300 772 309 750 305 761 b 263 847 288 797 276 822 b 256 859 261 851 259 856 b 216 868 246 871 229 874 b 199 834 205 862 196 848 b 207 810 201 826 204 818 z "},"":{"ha":507,"x_min":0,"x_max":0,"o":"m 438 321 b 418 508 438 384 433 447 b 379 603 410 542 399 575 b 262 665 351 644 311 663 b 217 652 246 666 230 662 b 95 486 157 610 117 555 b 69 320 77 432 69 376 b 93 155 70 269 77 203 b 171 40 109 109 134 70 b 403 86 250 -24 351 -12 b 425 151 413 106 420 128 b 438 321 435 202 438 269 z m 349 178 b 340 142 347 166 344 154 b 325 111 336 131 331 120 b 241 89 299 76 275 74 b 211 111 229 94 220 102 b 163 198 188 136 172 165 b 171 461 142 281 144 379 b 216 545 181 492 195 521 b 263 579 229 560 244 572 b 293 577 274 583 283 582 b 326 535 310 567 319 552 b 348 452 338 508 344 480 b 355 400 351 435 354 417 b 358 318 357 373 357 345 b 349 178 357 276 357 219 z m 222 712 b 228 714 225 713 228 714 b 257 738 241 721 249 729 b 309 803 274 759 291 781 b 316 815 312 807 314 811 b 307 855 323 829 319 845 b 269 856 297 863 281 864 b 251 837 262 851 256 844 b 208 783 236 820 222 801 b 194 761 203 776 198 769 b 188 739 190 755 188 747 b 222 712 187 719 203 707 z "},"":{"ha":507,"x_min":0,"x_max":0,"o":"m 438 321 b 418 508 438 384 433 447 b 379 603 410 542 399 575 b 262 665 351 644 311 663 b 217 652 246 666 230 662 b 95 486 157 610 117 555 b 69 320 77 432 69 376 b 93 155 70 269 77 203 b 171 40 109 109 134 70 b 403 86 250 -24 351 -12 b 425 151 413 106 420 128 b 438 321 435 202 438 269 z m 349 178 b 340 142 347 166 344 154 b 325 111 336 131 331 120 b 241 89 299 76 275 74 b 211 111 229 94 220 102 b 163 198 188 136 172 165 b 171 461 142 281 144 379 b 216 545 181 492 195 521 b 263 579 229 560 244 572 b 293 577 274 583 283 582 b 326 535 310 567 319 552 b 348 452 338 508 344 480 b 355 400 351 435 354 417 b 358 318 357 373 357 345 b 349 178 357 276 357 219 z m 199 709 b 205 711 202 710 204 711 b 232 736 217 718 225 727 b 258 771 241 748 250 760 b 273 742 263 762 268 752 b 287 720 277 734 282 727 b 304 705 291 714 297 709 b 343 724 322 696 340 705 b 344 731 344 727 344 730 b 335 766 344 745 340 756 b 298 842 323 792 311 817 b 290 854 296 846 294 851 b 251 863 281 866 264 869 b 243 857 248 861 245 859 b 240 855 242 856 241 856 b 222 836 233 850 227 843 b 181 779 208 817 195 798 b 168 757 176 772 172 765 b 163 734 165 750 163 742 b 199 709 164 714 180 703 z "},"":{"ha":507,"x_min":0,"x_max":0,"o":"m 438 321 b 418 508 438 384 433 447 b 379 603 410 542 399 575 b 262 665 351 644 311 663 b 217 652 246 666 230 662 b 95 486 157 610 117 555 b 69 320 77 432 69 376 b 93 155 70 269 77 203 b 171 40 109 109 134 70 b 403 86 250 -24 351 -12 b 425 151 413 106 420 128 b 438 321 435 202 438 269 z m 349 178 b 340 142 347 166 344 154 b 325 111 336 131 331 120 b 241 89 299 76 275 74 b 211 111 229 94 220 102 b 163 198 188 136 172 165 b 171 461 142 281 144 379 b 216 545 181 492 195 521 b 263 579 229 560 244 572 b 293 577 274 583 283 582 b 326 535 310 567 319 552 b 348 452 338 508 344 480 b 355 400 351 435 354 417 b 358 318 357 373 357 345 b 349 178 357 276 357 219 z m 171 709 b 203 722 183 705 195 710 b 212 739 206 728 208 734 b 262 749 225 759 243 762 b 286 732 270 743 278 737 b 376 741 320 712 347 715 b 396 762 383 747 390 754 b 404 784 401 768 404 776 b 372 807 404 801 388 813 b 355 798 366 805 360 802 b 342 787 350 795 346 790 b 308 785 327 774 325 774 b 284 802 300 790 293 797 b 240 815 272 810 258 815 b 155 752 207 815 166 786 b 152 738 153 747 153 742 b 171 709 152 724 159 713 z "},"":{"ha":507,"x_min":0,"x_max":0,"o":"m 438 321 b 418 508 438 384 433 447 b 379 603 410 542 399 575 b 262 665 351 644 311 663 b 217 652 246 666 230 662 b 95 486 157 610 117 555 b 69 320 77 432 69 376 b 93 155 70 269 77 203 b 171 40 109 109 134 70 b 403 86 250 -24 351 -12 b 425 151 413 106 420 128 b 438 321 435 202 438 269 z m 349 178 b 340 142 347 166 344 154 b 325 111 336 131 331 120 b 241 89 299 76 275 74 b 211 111 229 94 220 102 b 163 198 188 136 172 165 b 171 461 142 281 144 379 b 216 545 181 492 195 521 b 263 579 229 560 244 572 b 293 577 274 583 283 582 b 326 535 310 567 319 552 b 348 452 338 508 344 480 b 355 400 351 435 354 417 b 358 318 357 373 357 345 b 349 178 357 276 357 219 z m 177 743 b 214 756 191 743 200 746 b 228 795 228 766 233 778 b 209 825 225 806 219 817 b 159 832 194 837 177 841 b 129 786 140 823 129 808 b 177 743 129 762 150 743 z m 326 743 b 363 756 340 743 348 746 b 377 795 377 766 381 778 b 358 825 373 806 367 817 b 307 832 342 837 325 841 b 277 786 289 823 277 808 b 326 743 277 762 299 743 z "},"":{"ha":518,"x_min":0,"x_max":0,"o":"m 447 613 b 438 649 447 625 444 638 b 405 669 431 662 420 670 b 373 647 389 669 379 660 b 367 609 368 635 367 622 b 368 445 367 572 368 483 b 358 246 369 378 366 312 b 338 148 354 213 348 180 b 319 104 334 132 328 117 b 269 80 306 87 291 78 b 176 152 219 83 190 104 b 168 182 173 162 170 172 b 159 264 165 209 161 237 b 149 603 152 358 152 509 b 146 638 149 615 149 627 b 111 670 143 657 129 669 b 71 638 92 671 76 658 b 69 611 69 630 69 620 b 72 416 70 565 71 462 b 73 416 72 416 72 416 b 75 351 73 395 75 373 b 83 213 76 305 79 259 b 103 119 87 181 93 150 b 223 8 122 59 162 22 b 274 0 239 4 257 1 b 364 35 308 -1 339 11 b 401 89 380 50 392 68 b 421 151 410 109 416 129 b 445 328 436 209 441 268 b 447 613 451 406 448 535 z m 213 810 b 243 748 223 789 233 768 b 257 726 247 740 252 733 b 274 711 262 719 267 714 b 314 730 293 701 310 710 b 314 736 314 733 314 736 b 305 772 314 750 310 761 b 269 847 293 797 281 822 b 261 859 267 851 264 856 b 222 868 251 871 235 874 b 205 834 210 862 202 848 b 213 810 206 826 209 818 z "},"":{"ha":518,"x_min":0,"x_max":0,"o":"m 447 613 b 438 649 447 625 444 638 b 405 669 431 662 420 670 b 373 647 389 669 379 660 b 367 609 368 635 367 622 b 368 445 367 572 368 483 b 358 246 369 378 366 312 b 338 148 354 213 348 180 b 319 104 334 132 328 117 b 269 80 306 87 291 78 b 176 152 219 83 190 104 b 168 182 173 162 170 172 b 159 264 165 209 161 237 b 149 603 152 358 152 509 b 146 638 149 615 149 627 b 111 670 143 657 129 669 b 71 638 92 671 76 658 b 69 611 69 630 69 620 b 72 416 70 565 71 462 b 73 416 72 416 72 416 b 75 351 73 395 75 373 b 83 213 76 305 79 259 b 103 119 87 181 93 150 b 223 8 122 59 162 22 b 274 0 239 4 257 1 b 364 35 308 -1 339 11 b 401 89 380 50 392 69 b 421 151 410 109 416 129 b 445 328 436 209 441 268 b 447 613 451 406 448 535 z m 260 712 b 266 714 263 713 265 714 b 294 738 278 721 287 729 b 346 803 312 759 329 781 b 354 815 349 807 352 811 b 345 855 360 829 356 845 b 307 856 335 863 318 864 b 289 837 300 851 294 844 b 246 783 274 820 260 801 b 232 761 240 776 236 769 b 226 739 228 755 226 747 b 260 712 225 719 241 707 z "},"":{"ha":518,"x_min":0,"x_max":0,"o":"m 447 613 b 438 649 447 625 444 638 b 405 669 431 662 420 670 b 373 647 389 669 379 660 b 367 609 368 635 367 622 b 368 445 367 572 368 483 b 358 246 369 378 366 312 b 338 148 354 213 348 180 b 319 104 334 132 328 117 b 269 80 306 87 291 78 b 176 152 219 83 190 104 b 168 182 173 162 170 172 b 159 264 165 209 161 237 b 149 603 152 358 152 509 b 146 638 149 615 149 627 b 111 670 143 657 129 669 b 71 638 92 671 76 658 b 69 611 69 630 69 620 b 72 416 70 565 71 462 b 73 416 72 416 72 416 b 75 351 73 395 75 373 b 83 213 76 305 79 259 b 103 119 87 181 93 150 b 223 8 122 59 162 22 b 274 0 239 4 257 1 b 364 35 308 -1 339 11 b 401 89 380 50 392 68 b 421 151 410 109 416 129 b 445 328 436 209 441 268 b 447 613 451 406 448 535 z m 204 709 b 210 711 207 710 210 711 b 238 736 223 718 231 727 b 264 771 246 748 255 760 b 278 742 268 762 273 752 b 292 720 282 734 287 727 b 309 705 296 714 302 709 b 349 724 328 696 345 705 b 349 731 349 727 349 730 b 341 766 349 745 346 756 b 304 842 329 792 316 817 b 296 854 302 846 299 851 b 257 863 286 866 270 869 b 248 857 254 861 251 859 b 245 855 247 856 246 856 b 228 836 239 850 233 843 b 187 779 214 817 200 798 b 174 757 182 772 178 765 b 169 734 170 750 169 742 b 204 709 169 714 185 703 z "},"":{"ha":518,"x_min":0,"x_max":0,"o":"m 447 613 b 438 649 447 625 444 638 b 405 669 431 662 420 670 b 373 647 389 669 379 660 b 367 609 368 635 367 622 b 368 445 367 572 368 483 b 358 246 369 378 366 312 b 338 148 354 213 348 180 b 319 104 334 132 328 117 b 269 80 306 87 291 78 b 176 152 219 83 190 104 b 168 182 173 162 170 172 b 159 264 165 209 161 237 b 149 603 152 358 152 509 b 146 638 149 615 149 627 b 111 670 143 657 129 669 b 71 638 92 671 76 658 b 69 611 69 630 69 620 b 72 416 70 565 71 462 b 73 416 72 416 72 416 b 75 351 73 395 75 373 b 83 213 76 305 79 259 b 103 119 87 181 93 150 b 223 8 122 59 162 22 b 274 0 239 4 257 1 b 364 35 308 -1 339 11 b 401 89 380 50 392 69 b 421 151 410 109 416 129 b 445 328 436 209 441 268 b 447 613 451 406 448 535 z m 183 743 b 220 756 197 743 206 746 b 234 795 234 766 238 778 b 215 825 230 806 224 817 b 164 832 200 837 182 841 b 134 786 146 823 134 808 b 183 743 135 762 156 743 z m 331 743 b 368 756 345 743 354 746 b 382 795 382 766 387 778 b 363 825 379 806 373 817 b 313 832 348 837 331 841 b 283 786 294 823 282 808 b 331 743 283 762 304 743 z "},"":{"ha":511,"x_min":0,"x_max":0,"o":"m 441 42 b 437 79 440 52 439 69 b 337 510 402 230 370 403 b 303 611 327 544 315 577 b 279 652 298 626 291 641 b 207 648 257 674 227 673 b 194 624 202 641 197 632 b 179 585 188 611 184 598 b 132 406 159 527 145 466 b 71 61 116 327 96 182 b 70 50 71 57 70 52 b 98 3 68 24 79 7 b 146 32 119 -3 137 8 b 151 51 148 38 150 45 b 174 163 159 89 166 126 b 185 239 178 181 181 221 b 203 255 188 253 189 254 b 289 259 231 256 260 258 b 324 230 316 259 316 263 b 353 87 334 189 343 127 b 367 34 357 71 362 50 b 386 7 370 23 377 14 b 436 19 404 -6 426 0 b 441 42 440 26 442 34 z m 208 338 b 245 523 208 369 228 479 b 292 340 262 491 290 372 b 208 338 264 336 236 336 z m 202 810 b 233 748 212 789 222 768 b 246 726 237 740 241 733 b 264 711 251 719 257 714 b 303 730 282 701 299 710 b 303 736 303 733 303 736 b 295 772 303 750 300 761 b 258 847 283 797 270 822 b 250 859 256 851 253 856 b 211 868 241 871 224 874 b 194 834 199 862 191 848 b 202 810 195 826 199 818 z "},"":{"ha":511,"x_min":0,"x_max":0,"o":"m 441 42 b 437 79 440 52 439 69 b 337 510 402 230 370 403 b 303 611 327 544 315 577 b 279 652 298 626 291 641 b 207 648 257 674 227 673 b 194 624 202 641 197 632 b 179 585 188 611 184 598 b 132 406 159 527 145 466 b 71 61 116 327 96 182 b 70 50 71 57 70 52 b 98 3 68 24 79 7 b 146 32 119 -3 137 8 b 151 51 148 38 150 45 b 174 163 159 89 166 126 b 185 239 178 181 181 221 b 203 255 188 253 189 254 b 289 259 231 256 260 258 b 324 230 316 259 316 263 b 353 87 334 189 343 127 b 367 34 357 71 362 50 b 386 7 370 23 377 14 b 436 19 404 -6 426 0 b 441 42 440 26 442 34 z m 208 338 b 245 523 208 369 228 479 b 292 340 262 491 290 372 b 208 338 264 336 236 336 z m 210 712 b 216 714 213 713 215 714 b 244 738 228 721 237 729 b 296 803 262 759 279 781 b 304 815 299 807 302 811 b 295 855 310 829 306 845 b 257 856 285 863 268 864 b 239 837 250 851 244 844 b 196 783 224 820 210 801 b 181 761 190 776 186 769 b 175 739 178 755 176 747 b 210 712 175 719 190 707 z "},"":{"ha":511,"x_min":0,"x_max":0,"o":"m 441 42 b 437 79 440 52 439 69 b 337 510 402 230 370 403 b 303 611 327 544 315 577 b 279 652 298 626 291 641 b 207 648 257 674 227 673 b 194 624 202 641 197 632 b 179 585 188 611 184 598 b 132 406 159 527 145 466 b 71 61 116 327 96 182 b 70 50 71 57 70 52 b 98 3 68 24 79 7 b 146 32 119 -3 137 8 b 151 51 148 38 150 45 b 174 163 159 88 166 126 b 185 239 178 181 181 221 b 203 255 188 253 189 254 b 289 259 231 256 260 258 b 324 230 316 259 316 263 b 353 87 334 189 343 127 b 367 34 357 71 362 50 b 386 7 370 23 377 14 b 436 19 404 -6 426 0 b 441 42 440 26 442 34 z m 208 338 b 245 523 208 369 228 479 b 292 340 262 491 290 372 b 208 338 264 336 236 336 z m 196 707 b 201 710 198 708 201 710 b 229 734 214 717 222 725 b 255 770 237 746 246 758 b 269 741 260 760 264 750 b 283 718 273 733 278 726 b 301 703 288 712 293 707 b 340 723 319 694 336 703 b 340 729 340 726 340 729 b 332 765 340 743 337 754 b 295 841 320 790 307 815 b 287 853 293 845 290 849 b 248 861 277 864 261 868 b 239 855 245 860 242 858 b 236 853 238 855 237 854 b 219 834 230 848 224 841 b 178 778 205 816 191 797 b 165 755 173 771 169 763 b 160 733 161 748 160 741 b 196 707 160 713 176 701 z "},"":{"ha":511,"x_min":0,"x_max":0,"o":"m 441 42 b 437 79 440 52 439 69 b 337 510 402 230 370 403 b 303 611 327 544 315 577 b 279 652 298 626 291 641 b 207 648 257 674 227 673 b 194 624 202 641 197 632 b 179 585 188 611 184 598 b 132 406 159 527 145 466 b 71 61 116 327 96 182 b 70 50 71 57 70 52 b 98 3 68 24 79 7 b 146 32 119 -3 137 8 b 151 51 148 38 150 45 b 174 163 159 88 166 126 b 185 239 178 181 181 221 b 203 255 188 253 189 254 b 289 259 231 256 260 258 b 324 230 316 259 316 263 b 353 87 334 189 343 127 b 367 34 357 71 362 50 b 386 7 370 23 377 14 b 436 19 404 -6 426 0 b 441 42 440 26 442 34 z m 208 338 b 245 523 208 369 228 479 b 292 340 262 491 290 372 b 208 338 264 336 236 336 z m 149 709 b 180 722 160 705 172 710 b 189 739 183 728 185 734 b 239 749 202 759 220 762 b 263 732 247 743 255 737 b 353 741 297 712 324 715 b 373 762 360 747 367 754 b 381 784 378 768 381 776 b 349 807 381 801 366 813 b 332 798 343 805 337 802 b 319 787 328 795 324 790 b 286 785 305 774 302 774 b 262 802 278 790 270 797 b 217 815 249 810 235 815 b 132 752 184 815 143 786 b 130 738 131 747 130 742 b 149 709 129 724 136 713 z "},"":{"ha":511,"x_min":0,"x_max":0,"o":"m 441 42 b 437 79 440 52 439 69 b 337 510 402 230 370 403 b 303 611 327 544 315 577 b 279 652 298 626 291 641 b 207 648 257 674 227 673 b 194 624 202 641 197 632 b 179 585 188 611 184 598 b 132 406 159 527 145 466 b 71 61 116 327 96 182 b 70 50 71 57 70 52 b 98 3 68 24 79 7 b 146 32 119 -3 137 8 b 151 51 148 38 150 45 b 174 163 159 88 166 126 b 185 239 178 181 181 221 b 203 255 188 253 189 254 b 289 259 231 256 260 258 b 324 230 316 259 316 263 b 353 87 334 189 343 127 b 367 34 357 71 362 50 b 386 7 370 23 377 14 b 436 19 404 -6 426 0 b 441 42 440 26 442 34 z m 208 338 b 245 523 208 369 228 479 b 292 340 262 491 290 372 b 208 338 264 336 236 336 z m 166 746 b 203 759 180 746 189 749 b 217 798 217 769 222 781 b 198 828 214 809 207 820 b 148 835 183 840 166 844 b 118 789 129 826 117 811 b 166 746 118 764 139 746 z m 314 746 b 351 759 328 746 337 749 b 365 798 366 769 370 781 b 346 828 362 809 356 820 b 296 835 331 840 314 844 b 266 789 277 826 266 811 b 314 746 266 764 287 746 z "},"":{"ha":507,"x_min":0,"x_max":0,"o":"m 436 68 b 411 94 433 82 424 90 b 373 94 398 97 386 96 b 336 86 361 92 349 89 b 212 118 289 74 248 87 b 160 213 183 143 168 176 b 150 335 151 249 150 298 b 173 495 149 390 157 443 b 198 548 179 513 186 531 b 220 574 204 557 211 566 b 268 579 234 587 250 587 b 292 559 277 574 285 567 b 321 509 305 544 315 528 b 345 387 334 477 342 421 b 347 366 345 380 345 373 b 381 337 351 350 365 338 b 420 365 398 336 416 348 b 423 392 423 374 424 383 b 380 572 420 448 406 523 b 347 617 371 589 360 604 b 142 608 294 674 206 690 b 98 523 122 582 108 553 b 78 214 67 426 62 314 b 97 148 82 191 88 169 b 195 32 116 98 150 59 b 250 8 212 21 231 13 l 228 -63 b 224 -79 225 -68 223 -74 b 267 -103 226 -91 229 -104 b 272 -103 268 -103 270 -103 b 316 -140 298 -105 313 -113 b 296 -160 316 -150 308 -158 b 285 -161 292 -161 288 -161 b 282 -161 284 -161 283 -161 b 257 -213 255 -159 220 -189 b 266 -216 260 -215 262 -215 b 384 -144 324 -227 381 -192 b 371 -95 385 -127 380 -110 b 302 -51 357 -71 333 -57 b 296 -50 300 -51 298 -50 l 315 1 b 404 22 345 3 375 12 b 424 34 411 25 418 29 b 436 68 435 43 439 55 z "},"":{"ha":429,"x_min":0,"x_max":0,"o":"m 347 67 b 324 78 342 73 335 77 b 286 79 311 79 298 80 b 187 74 253 76 220 78 b 167 102 170 72 168 87 b 159 267 164 156 162 213 b 159 281 159 271 159 276 b 170 292 160 287 163 291 b 197 293 179 292 188 293 b 256 298 217 295 236 297 b 285 308 266 299 276 303 b 282 368 308 324 306 354 b 245 375 270 374 258 376 b 173 373 221 375 197 373 b 154 390 157 372 154 375 b 151 548 152 443 151 496 b 186 584 150 586 149 585 b 296 582 222 583 259 583 b 339 592 311 582 326 584 b 339 651 363 606 363 637 b 320 659 333 655 327 658 b 275 663 305 661 290 662 b 151 665 234 664 193 664 b 117 666 140 665 128 666 b 70 620 91 664 73 646 b 70 606 69 615 69 611 b 74 387 72 523 69 441 b 85 135 78 285 81 208 b 93 42 87 104 89 73 b 142 2 97 13 113 2 b 160 2 148 2 154 2 b 265 0 197 1 230 1 b 313 2 282 0 298 -1 b 347 15 326 4 337 6 b 347 67 364 30 362 52 z m 168 810 b 199 748 178 789 188 768 b 212 726 203 740 207 733 b 230 711 217 719 223 714 b 269 730 248 701 265 710 b 269 736 269 733 269 736 b 261 772 269 750 266 761 b 224 847 249 797 236 822 b 216 859 222 851 219 856 b 177 868 206 871 190 874 b 160 834 165 862 157 848 b 168 810 161 826 164 818 z "},"":{"ha":429,"x_min":0,"x_max":0,"o":"m 347 67 b 324 78 342 73 335 77 b 286 79 311 79 298 80 b 187 74 253 76 220 78 b 167 102 170 72 168 87 b 159 267 164 156 162 213 b 159 281 159 271 159 276 b 170 292 160 287 163 291 b 197 293 179 292 188 293 b 256 298 217 295 236 297 b 285 308 266 299 276 303 b 282 368 308 324 306 354 b 245 375 270 374 258 376 b 173 373 221 375 197 373 b 154 390 157 372 154 375 b 151 548 152 443 151 496 b 186 584 150 586 149 585 b 296 582 222 583 259 583 b 339 592 311 582 326 584 b 339 651 363 606 363 637 b 320 659 333 655 327 658 b 275 663 305 661 290 662 b 151 665 234 664 193 664 b 117 666 140 665 128 666 b 70 620 91 664 73 646 b 70 606 69 615 69 611 b 74 387 72 523 69 441 b 85 135 78 285 81 208 b 93 42 87 104 89 73 b 142 2 97 13 113 2 b 160 2 148 2 154 2 b 265 0 197 1 230 1 b 313 2 282 0 298 -1 b 347 15 326 4 337 6 b 347 67 364 30 362 52 z m 183 712 b 189 714 186 713 188 714 b 217 738 202 721 210 729 b 269 803 235 759 252 781 b 277 815 272 807 275 811 b 268 855 283 829 279 845 b 230 856 258 863 241 864 b 212 837 223 851 217 844 b 169 783 197 820 183 801 b 155 761 163 776 159 769 b 149 739 151 755 149 747 b 183 712 148 719 164 707 z "},"":{"ha":429,"x_min":0,"x_max":0,"o":"m 347 67 b 324 78 342 73 335 77 b 286 79 311 79 298 80 b 187 74 253 75 220 78 b 167 102 170 72 168 87 b 159 267 164 156 162 213 b 159 281 159 271 159 276 b 170 292 160 287 163 291 b 197 293 179 292 188 293 b 256 298 217 295 236 297 b 285 308 266 299 276 303 b 282 368 308 324 306 354 b 245 375 270 374 258 376 b 173 373 221 375 197 373 b 154 390 157 372 154 375 b 151 548 152 443 151 496 b 186 584 150 586 149 585 b 296 582 222 583 259 583 b 339 592 311 582 326 584 b 339 651 363 606 363 637 b 320 659 333 655 327 658 b 275 663 305 661 290 662 b 151 665 234 664 193 664 b 117 666 140 665 128 666 b 70 620 91 664 73 646 b 70 606 69 615 69 611 b 74 387 72 523 69 441 b 85 135 78 285 81 208 b 93 42 87 104 89 73 b 142 2 97 13 113 2 b 160 2 148 2 154 2 b 265 0 197 1 230 1 b 313 2 282 0 298 -1 b 347 15 326 4 337 6 b 347 67 364 30 362 52 z m 160 708 b 165 710 162 709 165 710 b 193 735 178 717 186 726 b 219 770 202 747 210 759 b 233 741 224 761 229 751 b 247 719 237 733 242 726 b 265 704 252 713 258 708 b 304 723 283 695 301 704 b 304 730 304 726 304 729 b 296 765 304 744 301 755 b 259 841 284 791 271 816 b 251 853 257 845 254 850 b 212 862 241 865 225 868 b 203 856 209 860 206 858 b 200 854 202 855 201 855 b 183 835 194 849 188 842 b 142 778 169 816 155 797 b 129 756 137 771 133 764 b 124 733 125 749 124 741 b 160 708 124 713 141 702 z "},"":{"ha":429,"x_min":0,"x_max":0,"o":"m 347 67 b 324 78 342 73 335 77 b 286 79 311 79 298 80 b 187 74 253 76 220 78 b 167 102 170 72 168 87 b 159 267 164 156 162 213 b 159 281 159 271 159 276 b 170 292 160 287 163 291 b 197 293 179 292 188 293 b 256 298 217 295 236 297 b 285 308 266 299 276 303 b 282 368 308 324 306 354 b 245 375 270 374 258 376 b 173 373 221 375 197 373 b 154 390 157 372 154 375 b 151 548 152 443 151 496 b 186 584 150 586 149 585 b 296 582 222 583 259 583 b 339 592 311 582 326 584 b 339 651 363 606 363 637 b 320 659 333 655 327 658 b 275 663 305 661 290 662 b 151 665 234 664 193 664 b 117 666 140 665 128 666 b 70 620 91 664 73 646 b 70 606 69 615 69 611 b 74 387 72 523 69 441 b 85 135 78 285 81 208 b 93 42 87 104 89 73 b 142 2 97 13 113 2 b 160 2 148 2 154 2 b 265 0 197 1 230 1 b 313 2 282 0 298 -1 b 347 15 326 4 337 6 b 347 67 364 30 362 52 z m 138 743 b 175 756 152 743 161 746 b 189 795 189 766 194 778 b 170 825 185 806 179 817 b 120 832 155 837 138 841 b 90 786 101 823 89 808 b 138 743 90 762 111 743 z m 286 743 b 323 756 300 743 309 746 b 337 795 337 766 342 778 b 318 825 334 806 328 817 b 268 832 303 837 286 841 b 238 786 249 823 238 808 b 286 743 238 762 259 743 z "},"":{"ha":249,"x_min":0,"x_max":0,"o":"m 168 252 b 160 600 165 358 162 494 b 156 634 159 612 159 623 b 118 667 152 655 137 668 b 80 633 100 667 84 653 b 79 599 78 622 79 610 b 85 326 83 516 86 405 b 92 133 88 259 90 196 b 92 61 92 109 91 85 b 94 30 92 51 92 40 b 131 0 99 11 114 0 b 166 28 147 0 161 11 b 170 52 168 36 169 44 b 171 134 172 79 173 107 b 168 252 170 173 169 213 z m 171 772 b 134 847 159 797 147 822 b 126 859 132 851 129 856 b 87 868 117 871 100 874 b 70 834 75 862 67 848 b 78 810 71 826 75 818 b 109 748 88 789 98 768 b 122 726 113 740 118 733 b 140 711 127 719 133 714 b 179 730 158 701 176 710 b 180 736 179 733 180 736 b 171 772 179 750 176 761 z "},"":{"ha":271,"x_min":0,"x_max":0,"o":"m 177 252 b 169 600 175 358 172 494 b 166 634 169 612 168 623 b 128 667 162 655 146 668 b 90 633 109 667 93 653 b 89 599 88 622 88 610 b 95 326 93 516 95 405 b 101 133 97 259 99 196 b 101 61 102 109 101 85 b 104 30 101 51 101 40 b 141 0 108 11 123 0 b 176 28 157 0 170 11 b 180 52 178 36 179 44 b 181 134 182 79 182 107 b 177 252 179 173 178 213 z m 189 855 b 151 856 179 863 162 864 b 132 837 144 851 138 844 b 89 783 118 820 104 801 b 75 761 84 776 80 769 b 69 739 72 755 70 747 b 104 712 69 719 84 707 b 110 714 106 713 109 714 b 138 738 122 721 131 729 b 190 803 156 759 173 781 b 198 815 193 807 196 811 b 189 855 204 829 200 845 z "},"":{"ha":319,"x_min":0,"x_max":0,"o":"m 203 252 b 195 600 200 358 198 494 b 192 634 195 612 194 623 b 153 667 187 655 172 668 b 115 633 135 667 119 653 b 115 599 114 622 114 610 b 121 326 118 516 121 405 b 127 133 123 259 125 196 b 127 61 127 109 126 85 b 129 30 127 51 127 40 b 166 0 134 11 149 0 b 201 28 182 0 196 11 b 205 52 204 36 204 44 b 207 134 208 79 208 107 b 203 252 205 173 204 213 z m 241 766 b 204 842 229 791 217 816 b 197 854 202 846 200 850 b 157 862 187 865 170 869 b 149 856 154 861 151 859 b 146 854 148 856 147 855 b 128 835 139 849 133 842 b 88 779 114 817 101 798 b 74 756 83 772 78 764 b 69 734 71 749 69 742 b 105 708 70 714 86 702 b 111 711 108 709 110 711 b 138 735 123 718 131 726 b 164 771 147 747 156 759 b 179 742 169 761 174 751 b 193 719 183 734 188 727 b 210 704 197 713 203 708 b 249 724 228 695 246 704 b 250 730 250 727 250 730 b 241 766 250 744 246 755 z "},"":{"ha":389,"x_min":0,"x_max":0,"o":"m 237 252 b 229 600 235 358 232 494 b 226 634 229 612 228 623 b 188 667 222 655 206 668 b 150 633 169 667 153 653 b 149 599 148 622 149 610 b 155 326 153 516 155 405 b 161 133 157 259 160 196 b 161 61 162 109 161 85 b 164 30 161 51 161 40 b 201 0 168 11 183 0 b 236 28 217 0 230 11 b 240 52 238 36 239 44 b 241 134 242 79 242 107 b 237 252 240 173 238 213 z m 169 795 b 150 825 165 806 159 817 b 99 832 135 837 117 841 b 69 786 81 823 69 808 b 118 743 70 762 91 743 b 155 756 132 743 141 746 b 169 795 169 766 174 778 z m 317 795 b 298 825 314 806 308 817 b 248 832 283 837 266 841 b 218 786 229 823 218 808 b 266 743 218 762 239 743 b 303 756 280 743 289 746 b 317 795 317 766 322 778 z "},"":{"ha":511,"x_min":0,"x_max":0,"o":"m 441 207 b 437 303 439 239 438 271 b 431 602 435 387 429 519 b 428 640 431 615 432 628 b 395 670 422 659 411 669 b 357 642 378 672 363 661 b 353 621 355 635 353 628 b 350 584 351 609 350 596 b 360 257 349 491 354 350 b 360 212 360 250 360 221 b 347 246 355 225 349 242 b 326 293 340 262 333 277 b 173 614 283 391 226 521 b 161 635 169 621 165 628 b 113 668 148 657 135 663 b 73 642 96 672 78 659 b 70 615 71 633 70 624 b 70 518 70 594 71 539 b 73 167 69 401 68 284 b 79 60 74 131 77 95 b 91 18 79 45 82 30 b 148 19 107 -4 134 -4 b 156 45 153 27 155 36 b 156 80 156 57 157 68 b 152 193 155 118 153 156 b 149 442 148 276 148 359 b 148 482 149 447 148 482 b 166 445 148 482 164 449 b 191 394 175 428 183 412 b 252 263 212 350 232 307 b 333 56 279 203 306 115 b 351 23 338 44 344 33 b 398 1 362 6 378 -3 b 435 38 419 4 430 19 b 439 65 437 46 438 56 b 441 207 441 103 442 169 z m 149 709 b 180 722 160 705 173 710 b 189 739 183 728 186 734 b 239 749 202 759 220 762 b 263 732 247 743 255 737 b 353 741 297 712 324 715 b 373 762 360 747 367 754 b 381 784 379 768 381 776 b 349 807 381 801 366 813 b 332 798 343 805 338 802 b 319 787 328 795 324 790 b 286 785 305 774 302 774 b 262 802 278 790 270 797 b 217 815 249 810 235 815 b 132 752 184 815 143 786 b 130 738 131 747 130 742 b 149 709 129 724 136 713 z "},"":{"ha":507,"x_min":0,"x_max":0,"o":"m 438 321 b 418 508 438 384 433 447 b 379 603 410 542 399 575 b 262 665 351 644 311 663 b 217 652 246 666 230 662 b 95 486 157 610 117 555 b 69 320 77 432 69 376 b 93 155 70 269 77 203 b 171 40 109 109 134 70 b 403 86 250 -24 351 -12 b 425 151 413 106 420 128 b 438 321 435 202 438 269 z m 349 178 b 340 142 347 166 344 154 b 325 111 336 131 331 120 b 241 89 299 76 275 74 b 211 111 229 94 220 102 b 163 198 188 136 172 165 b 171 461 142 281 144 379 b 216 545 181 492 195 521 b 263 579 229 560 244 572 b 293 577 274 583 283 582 b 326 535 310 567 319 552 b 348 452 338 508 344 480 b 355 400 351 435 354 417 b 358 318 357 373 357 345 b 349 178 357 276 357 219 z m 207 810 b 238 748 217 789 227 768 b 252 726 242 740 247 733 b 269 711 256 719 262 714 b 308 730 287 701 305 710 b 309 736 309 733 309 736 b 300 772 309 750 305 761 b 263 847 288 797 276 822 b 256 859 261 851 259 856 b 216 868 246 871 229 874 b 199 834 205 862 196 848 b 207 810 201 826 204 818 z "},"":{"ha":507,"x_min":0,"x_max":0,"o":"m 438 321 b 418 508 438 384 433 447 b 379 603 410 542 399 575 b 262 665 351 644 311 663 b 217 652 246 666 230 662 b 95 486 157 610 117 555 b 69 320 77 432 69 376 b 93 155 70 269 77 203 b 171 40 109 109 134 70 b 403 86 250 -24 351 -12 b 425 151 413 106 420 128 b 438 321 435 202 438 269 z m 349 178 b 340 142 347 166 344 154 b 325 111 336 131 331 120 b 241 89 299 76 275 74 b 211 111 229 94 220 102 b 163 198 188 136 172 165 b 171 461 142 281 144 379 b 216 545 181 492 195 521 b 263 579 229 560 244 572 b 293 577 274 583 283 582 b 326 535 310 567 319 552 b 348 452 338 508 344 480 b 355 400 351 435 354 417 b 358 318 357 373 357 345 b 349 178 357 276 357 219 z m 222 712 b 228 714 225 713 228 714 b 257 738 241 721 249 729 b 309 803 274 759 291 781 b 316 815 312 807 314 811 b 307 855 323 829 319 845 b 269 856 297 863 281 864 b 251 837 262 851 256 844 b 208 783 236 820 222 801 b 194 761 203 776 198 769 b 188 739 190 755 188 747 b 222 712 187 719 203 707 z "},"":{"ha":507,"x_min":0,"x_max":0,"o":"m 438 321 b 418 508 438 384 433 447 b 379 603 410 542 399 575 b 262 665 351 644 311 663 b 217 652 246 666 230 662 b 95 486 157 610 117 555 b 69 320 77 432 69 376 b 93 155 70 269 77 203 b 171 40 109 109 134 70 b 403 86 250 -24 351 -12 b 425 151 413 106 420 128 b 438 321 435 202 438 269 z m 349 178 b 340 142 347 166 344 154 b 325 111 336 131 331 120 b 241 89 299 76 275 74 b 211 111 229 94 220 102 b 163 198 188 136 172 165 b 171 461 142 281 144 379 b 216 545 181 492 195 521 b 263 579 229 560 244 572 b 293 577 274 583 283 582 b 326 535 310 567 319 552 b 348 452 338 508 344 480 b 355 400 351 435 354 417 b 358 318 357 373 357 345 b 349 178 357 276 357 219 z m 199 709 b 205 711 202 710 204 711 b 232 736 217 718 225 727 b 258 771 241 748 250 760 b 273 742 263 762 268 752 b 287 720 277 734 282 727 b 304 705 291 714 297 709 b 343 724 322 696 340 705 b 344 731 344 727 344 730 b 335 766 344 745 340 756 b 298 842 323 792 311 817 b 290 854 296 846 294 851 b 251 863 281 866 264 869 b 243 857 248 861 245 859 b 240 855 242 856 241 856 b 222 836 233 850 227 843 b 181 779 208 817 195 798 b 168 757 176 772 172 765 b 163 734 165 750 163 742 b 199 709 164 714 180 703 z "},"":{"ha":507,"x_min":0,"x_max":0,"o":"m 438 321 b 418 508 438 384 433 447 b 379 603 410 542 399 575 b 262 665 351 644 311 663 b 217 652 246 666 230 662 b 95 486 157 610 117 555 b 69 320 77 432 69 376 b 93 155 70 269 77 203 b 171 40 109 109 134 70 b 403 86 250 -24 351 -12 b 425 151 413 106 420 128 b 438 321 435 202 438 269 z m 349 178 b 340 142 347 166 344 154 b 325 111 336 131 331 120 b 241 89 299 76 275 74 b 211 111 229 94 220 102 b 163 198 188 136 172 165 b 171 461 142 281 144 379 b 216 545 181 492 195 521 b 263 579 229 560 244 572 b 293 577 274 583 283 582 b 326 535 310 567 319 552 b 348 452 338 508 344 480 b 355 400 351 435 354 417 b 358 318 357 373 357 345 b 349 178 357 276 357 219 z m 171 709 b 203 722 183 705 195 710 b 212 739 206 728 208 734 b 262 749 225 759 243 762 b 286 732 270 743 278 737 b 376 741 320 712 347 715 b 396 762 383 747 390 754 b 404 784 401 768 404 776 b 372 807 404 801 388 813 b 355 798 366 805 360 802 b 342 787 350 795 346 790 b 308 785 327 774 325 774 b 284 802 300 790 293 797 b 240 815 272 810 258 815 b 155 752 207 815 166 786 b 152 738 153 747 153 742 b 171 709 152 724 159 713 z "},"":{"ha":507,"x_min":0,"x_max":0,"o":"m 438 321 b 418 508 438 384 433 447 b 379 603 410 542 399 575 b 262 665 351 644 311 663 b 217 652 246 666 230 662 b 95 486 157 610 117 555 b 69 320 77 432 69 376 b 93 155 70 269 77 203 b 171 40 109 109 134 70 b 403 86 250 -24 351 -12 b 425 151 413 106 420 128 b 438 321 435 202 438 269 z m 349 178 b 340 142 347 166 344 154 b 325 111 336 131 331 120 b 241 89 299 76 275 74 b 211 111 229 94 220 102 b 163 198 188 136 172 165 b 171 461 142 281 144 379 b 216 545 181 492 195 521 b 263 579 229 560 244 572 b 293 577 274 583 283 582 b 326 535 310 567 319 552 b 348 452 338 508 344 480 b 355 400 351 435 354 417 b 358 318 357 373 357 345 b 349 178 357 276 357 219 z m 177 743 b 214 756 191 743 200 746 b 228 795 228 766 233 778 b 209 825 225 806 219 817 b 159 832 194 837 177 841 b 129 786 140 823 129 808 b 177 743 129 762 150 743 z m 326 743 b 363 756 340 743 348 746 b 377 795 377 766 381 778 b 358 825 373 806 367 817 b 307 832 342 837 325 841 b 277 786 289 823 277 808 b 326 743 277 762 299 743 z "},"":{"ha":510,"x_min":0,"x_max":0,"o":"m 423 435 b 401 443 417 439 408 442 b 360 443 387 444 373 444 b 218 433 315 440 270 437 b 133 433 195 433 164 433 b 102 432 122 433 112 434 b 70 397 83 429 71 414 b 100 357 68 378 81 361 b 124 355 108 355 116 355 b 372 364 207 353 289 357 b 405 370 383 365 394 368 b 429 383 414 372 423 377 b 423 435 446 399 444 424 z m 245 507 b 284 546 267 506 284 523 b 247 587 285 568 269 586 b 208 548 226 588 208 570 b 245 507 207 525 223 507 z m 260 283 b 222 248 240 284 223 268 b 260 208 220 227 238 208 b 298 243 280 208 297 223 b 260 283 299 265 282 283 z "},"":{"ha":518,"x_min":0,"x_max":0,"o":"m 447 613 b 438 649 447 625 444 638 b 405 669 431 662 420 670 b 373 647 389 669 379 660 b 367 609 368 635 367 622 b 368 445 367 572 368 483 b 358 246 369 378 366 312 b 338 148 354 213 348 180 b 319 104 334 132 328 117 b 269 80 306 87 291 78 b 176 152 219 83 190 104 b 168 182 173 162 170 172 b 159 264 165 209 161 237 b 149 603 152 358 152 509 b 146 638 149 615 149 627 b 111 670 143 657 129 669 b 71 638 92 671 76 658 b 69 611 69 630 69 620 b 72 416 70 565 71 462 b 73 416 72 416 72 416 b 75 351 73 395 75 373 b 83 213 76 305 79 259 b 103 119 87 181 93 150 b 223 8 122 59 162 22 b 274 0 239 4 257 1 b 364 35 308 -1 339 11 b 401 89 380 50 392 68 b 421 151 410 109 416 129 b 445 328 436 209 441 268 b 447 613 451 406 448 535 z m 213 810 b 243 748 223 789 233 768 b 257 726 247 740 252 733 b 274 711 262 719 267 714 b 314 730 293 701 310 710 b 314 736 314 733 314 736 b 305 772 314 750 310 761 b 269 847 293 797 281 822 b 261 859 267 851 264 856 b 222 868 251 871 235 874 b 205 834 210 862 202 848 b 213 810 206 826 209 818 z "},"":{"ha":518,"x_min":0,"x_max":0,"o":"m 447 613 b 438 649 447 625 444 638 b 405 669 431 662 420 670 b 373 647 389 669 379 660 b 367 609 368 635 367 622 b 368 445 367 572 368 483 b 358 246 369 378 366 312 b 338 148 354 213 348 180 b 319 104 334 132 328 117 b 269 80 306 87 291 78 b 176 152 219 83 190 104 b 168 182 173 162 170 172 b 159 264 165 209 161 237 b 149 603 152 358 152 509 b 146 638 149 615 149 627 b 111 670 143 657 129 669 b 71 638 92 671 76 658 b 69 611 69 630 69 620 b 72 416 70 565 71 462 b 73 416 72 416 72 416 b 75 351 73 395 75 373 b 83 213 76 305 79 259 b 103 119 87 181 93 150 b 223 8 122 59 162 22 b 274 0 239 4 257 1 b 364 35 308 -1 339 11 b 401 89 380 50 392 69 b 421 151 410 109 416 129 b 445 328 436 209 441 268 b 447 613 451 406 448 535 z m 260 712 b 266 714 263 713 265 714 b 294 738 278 721 287 729 b 346 803 312 759 329 781 b 354 815 349 807 352 811 b 345 855 360 829 356 845 b 307 856 335 863 318 864 b 289 837 300 851 294 844 b 246 783 274 820 260 801 b 232 761 240 776 236 769 b 226 739 228 755 226 747 b 260 712 225 719 241 707 z "},"":{"ha":518,"x_min":0,"x_max":0,"o":"m 447 613 b 438 649 447 625 444 638 b 405 669 431 662 420 670 b 373 647 389 669 379 660 b 367 609 368 635 367 622 b 368 445 367 572 368 483 b 358 246 369 378 366 312 b 338 148 354 213 348 180 b 319 104 334 132 328 117 b 269 80 306 87 291 78 b 176 152 219 83 190 104 b 168 182 173 162 170 172 b 159 264 165 209 161 237 b 149 603 152 358 152 509 b 146 638 149 615 149 627 b 111 670 143 657 129 669 b 71 638 92 671 76 658 b 69 611 69 630 69 620 b 72 416 70 565 71 462 b 73 416 72 416 72 416 b 75 351 73 395 75 373 b 83 213 76 305 79 259 b 103 119 87 181 93 150 b 223 8 122 59 162 22 b 274 0 239 4 257 1 b 364 35 308 -1 339 11 b 401 89 380 50 392 68 b 421 151 410 109 416 129 b 445 328 436 209 441 268 b 447 613 451 406 448 535 z m 204 709 b 210 711 207 710 210 711 b 238 736 223 718 231 727 b 264 771 246 748 255 760 b 278 742 268 762 273 752 b 292 720 282 734 287 727 b 309 705 296 714 302 709 b 349 724 328 696 345 705 b 349 731 349 727 349 730 b 341 766 349 745 346 756 b 304 842 329 792 316 817 b 296 854 302 846 299 851 b 257 863 286 866 270 869 b 248 857 254 861 251 859 b 245 855 247 856 246 856 b 228 836 239 850 233 843 b 187 779 214 817 200 798 b 174 757 182 772 178 765 b 169 734 170 750 169 742 b 204 709 169 714 185 703 z "},"":{"ha":518,"x_min":0,"x_max":0,"o":"m 447 613 b 438 649 447 625 444 638 b 405 669 431 662 420 670 b 373 647 389 669 379 660 b 367 609 368 635 367 622 b 368 445 367 572 368 483 b 358 246 369 378 366 312 b 338 148 354 213 348 180 b 319 104 334 132 328 117 b 269 80 306 87 291 78 b 176 152 219 83 190 104 b 168 182 173 162 170 172 b 159 264 165 209 161 237 b 149 603 152 358 152 509 b 146 638 149 615 149 627 b 111 670 143 657 129 669 b 71 638 92 671 76 658 b 69 611 69 630 69 620 b 72 416 70 565 71 462 b 73 416 72 416 72 416 b 75 351 73 395 75 373 b 83 213 76 305 79 259 b 103 119 87 181 93 150 b 223 8 122 59 162 22 b 274 0 239 4 257 1 b 364 35 308 -1 339 11 b 401 89 380 50 392 69 b 421 151 410 109 416 129 b 445 328 436 209 441 268 b 447 613 451 406 448 535 z m 183 743 b 220 756 197 743 206 746 b 234 795 234 766 238 778 b 215 825 230 806 224 817 b 164 832 200 837 182 841 b 134 786 146 823 134 808 b 183 743 135 762 156 743 z m 331 743 b 368 756 345 743 354 746 b 382 795 382 766 387 778 b 363 825 379 806 373 817 b 313 832 348 837 331 841 b 283 786 294 823 282 808 b 331 743 283 762 304 743 z "},"":{"ha":563,"x_min":0,"x_max":0,"o":"m 447 667 b 420 647 435 664 426 657 b 411 621 416 639 413 630 b 326 376 388 550 349 447 b 311 347 323 366 322 353 b 289 378 300 355 295 367 b 152 629 247 453 197 556 b 135 654 147 638 142 647 b 91 663 123 667 106 670 b 70 620 75 656 67 639 b 77 601 72 613 74 607 b 91 577 81 593 86 585 b 214 349 131 511 176 416 b 268 262 230 319 247 289 b 280 227 277 251 279 240 b 287 76 282 177 284 126 b 292 38 288 63 290 51 b 306 11 293 28 298 18 b 360 15 321 -5 346 -3 b 369 44 366 24 369 33 b 366 96 368 61 367 78 b 360 213 364 135 362 174 b 367 260 359 229 361 244 b 487 598 409 359 453 495 b 493 625 489 606 492 615 b 447 667 495 651 472 671 z m 205 743 b 242 756 219 743 228 746 b 256 795 256 766 260 778 b 237 825 252 806 246 817 b 186 832 221 837 204 841 b 156 786 168 823 156 808 b 205 743 157 762 178 743 z m 353 743 b 390 756 367 743 376 746 b 404 795 404 766 409 778 b 385 825 401 806 394 817 b 335 832 370 837 353 841 b 305 786 316 823 304 808 b 353 743 305 762 326 743 z "},"":{"ha":507,"x_min":0,"x_max":0,"o":"m 436 67 b 411 93 433 81 424 89 b 373 93 398 97 386 96 b 336 85 361 91 349 88 b 212 117 289 73 248 86 b 160 212 183 142 168 176 b 150 334 151 248 150 298 b 173 494 149 389 157 442 b 198 547 179 512 186 531 b 220 573 204 556 211 565 b 268 578 234 586 250 586 b 292 558 277 573 285 566 b 321 508 305 544 315 527 b 345 386 334 476 342 421 b 347 366 345 379 345 372 b 381 336 351 349 365 338 b 420 364 398 335 416 347 b 423 391 423 373 424 382 b 380 572 420 447 406 522 b 347 616 371 588 360 603 b 142 607 294 673 206 689 b 98 522 122 581 108 553 b 78 213 67 425 62 313 b 97 147 82 190 88 168 b 195 31 116 97 150 58 b 307 0 229 10 267 -1 b 404 21 340 1 372 10 b 424 34 411 24 418 28 b 436 67 435 42 439 54 z m 222 712 b 228 714 225 713 227 714 b 256 738 240 721 249 729 b 308 803 274 759 291 781 b 316 815 311 807 314 811 b 307 855 322 829 318 845 b 269 856 297 863 280 864 b 251 837 262 851 256 844 b 208 783 236 820 222 801 b 193 761 202 776 198 769 b 187 739 190 755 188 747 b 222 712 187 719 203 707 z "},"":{"ha":507,"x_min":0,"x_max":0,"o":"m 436 67 b 411 93 433 81 424 89 b 373 93 398 97 386 96 b 336 85 361 91 349 88 b 212 117 289 73 248 86 b 160 212 183 142 168 176 b 150 334 151 248 150 298 b 173 494 149 389 157 442 b 198 547 179 512 186 531 b 220 573 204 556 211 565 b 268 578 234 586 250 586 b 292 558 277 573 285 566 b 321 508 305 544 315 527 b 345 386 334 476 342 421 b 347 366 345 379 345 372 b 381 336 351 349 365 338 b 420 364 398 335 416 347 b 423 391 423 373 424 382 b 380 572 420 447 406 522 b 347 616 371 588 360 603 b 142 607 294 673 206 689 b 98 522 122 581 108 553 b 78 213 67 425 62 313 b 97 147 82 190 88 168 b 195 31 116 97 150 58 b 307 0 229 10 267 -1 b 404 21 340 1 372 10 b 424 34 411 24 418 28 b 436 67 435 42 439 54 z m 222 712 b 228 714 225 713 227 714 b 256 738 240 721 249 729 b 308 803 274 759 291 781 b 316 815 311 807 314 811 b 307 855 322 829 318 845 b 269 856 297 863 280 864 b 251 837 262 851 256 844 b 208 783 236 820 222 801 b 193 761 202 776 198 769 b 187 739 190 755 188 747 b 222 712 187 719 203 707 z "},"":{"ha":511,"x_min":0,"x_max":0,"o":"m 441 207 b 437 303 439 239 438 271 b 431 602 435 387 429 519 b 428 640 431 615 432 628 b 395 670 422 659 411 669 b 357 642 378 672 363 661 b 353 621 355 635 353 628 b 350 584 351 609 350 596 b 360 257 349 491 354 350 b 360 212 360 250 360 221 b 347 246 355 225 349 242 b 326 293 340 262 333 277 b 173 614 283 391 226 521 b 161 635 169 621 165 628 b 113 668 148 657 135 663 b 73 642 96 672 78 659 b 70 615 71 633 70 624 b 70 518 70 594 71 539 b 73 167 69 401 68 284 b 79 60 74 131 77 95 b 91 18 79 45 82 30 b 148 19 107 -4 134 -4 b 156 45 153 27 155 36 b 156 80 156 57 157 68 b 152 193 155 118 153 156 b 149 442 148 276 148 359 b 148 482 149 447 148 482 b 166 445 148 482 164 449 b 191 394 175 428 183 412 b 252 263 212 350 232 307 b 333 56 279 203 306 115 b 351 23 338 44 344 33 b 398 1 362 6 378 -3 b 435 38 419 4 430 19 b 439 65 437 46 438 56 b 441 207 441 103 442 169 z m 224 712 b 230 714 227 713 229 714 b 258 738 243 721 251 729 b 311 803 276 759 293 781 b 318 815 314 807 316 811 b 309 855 324 829 320 845 b 271 856 299 863 282 864 b 253 837 264 851 258 844 b 210 783 238 820 224 801 b 196 761 205 776 200 769 b 190 739 192 755 190 747 b 224 712 189 719 205 707 z "},"":{"ha":511,"x_min":0,"x_max":0,"o":"m 441 207 b 437 303 439 239 438 271 b 431 602 435 387 429 519 b 428 640 431 615 432 628 b 395 670 422 659 411 669 b 357 642 378 672 363 661 b 353 621 355 635 353 628 b 350 584 351 609 350 596 b 360 257 349 491 354 350 b 360 212 360 250 360 221 b 347 246 355 225 349 242 b 326 293 340 262 333 277 b 173 614 283 391 226 521 b 161 635 169 621 165 628 b 113 668 148 657 135 663 b 73 642 96 672 78 659 b 70 615 71 633 70 624 b 70 518 70 594 71 539 b 73 167 69 401 68 284 b 79 60 74 131 77 95 b 91 18 79 45 82 30 b 148 19 107 -4 134 -4 b 156 45 153 27 155 36 b 156 80 156 57 157 68 b 152 193 155 118 153 156 b 149 442 148 276 148 359 b 148 482 149 447 148 482 b 166 445 148 482 164 449 b 191 394 175 428 183 412 b 252 263 212 350 232 307 b 333 56 279 203 306 115 b 351 23 338 44 344 33 b 398 1 362 6 378 -3 b 435 38 419 4 430 19 b 439 65 437 46 438 56 b 441 207 441 103 442 169 z m 224 712 b 230 714 227 713 229 714 b 258 738 243 721 251 729 b 311 803 276 759 293 781 b 318 815 314 807 316 811 b 309 855 324 829 320 845 b 271 856 299 863 282 864 b 253 837 264 851 258 844 b 210 783 238 820 224 801 b 196 761 205 776 200 769 b 190 739 192 755 190 747 b 224 712 189 719 205 707 z "},"":{"ha":474,"x_min":0,"x_max":0,"o":"m 395 509 b 369 580 391 535 382 558 b 282 655 350 616 320 641 b 138 628 229 675 180 666 b 77 425 78 573 56 505 b 138 319 88 384 108 349 b 229 214 167 291 198 248 b 275 148 248 196 260 171 b 291 118 281 139 287 129 b 264 81 298 97 286 82 b 228 90 251 80 239 83 b 204 109 219 96 211 103 b 165 144 191 121 178 132 b 133 163 156 152 145 159 b 98 155 120 167 107 165 b 90 119 88 144 86 133 b 106 93 94 109 99 101 b 183 24 129 68 154 44 b 261 0 206 9 232 0 b 368 139 339 -1 388 64 b 344 189 363 157 354 173 b 271 277 327 215 293 255 b 203 362 245 303 227 332 b 179 394 194 373 187 382 b 181 558 139 451 138 508 b 278 567 211 594 250 589 b 304 534 289 558 298 547 b 319 475 313 516 317 496 b 324 403 321 451 322 427 b 326 379 325 395 324 387 b 364 346 330 358 345 346 b 401 376 382 346 397 358 b 404 420 404 390 403 406 b 395 509 404 450 399 480 z m 234 712 b 240 714 237 713 239 714 b 268 738 253 721 261 729 b 321 803 286 759 303 781 b 328 815 324 807 326 811 b 319 855 334 829 331 845 b 281 856 309 863 292 864 b 263 837 274 851 268 844 b 220 783 248 820 234 801 b 206 761 215 776 210 769 b 200 739 202 755 200 747 b 234 712 199 719 215 707 z "},"":{"ha":474,"x_min":0,"x_max":0,"o":"m 395 509 b 369 580 391 535 382 558 b 282 655 350 616 320 641 b 138 628 229 675 180 666 b 77 425 78 573 56 505 b 138 319 88 384 108 349 b 229 214 167 291 198 248 b 275 148 248 196 260 171 b 291 118 281 139 287 129 b 264 81 298 97 286 82 b 228 90 251 80 239 83 b 204 109 219 96 211 103 b 165 144 191 121 178 132 b 133 163 156 152 145 159 b 98 155 120 167 107 165 b 90 119 88 144 86 133 b 106 93 94 109 99 101 b 183 24 129 68 154 44 b 261 0 206 9 232 0 b 368 139 339 -1 388 64 b 344 189 363 157 354 173 b 271 277 327 215 293 255 b 203 362 245 303 227 332 b 179 394 194 373 187 382 b 181 558 139 451 138 508 b 278 567 211 594 250 589 b 304 534 289 558 298 547 b 319 475 313 516 317 496 b 324 403 321 451 322 427 b 326 379 325 395 324 387 b 364 346 330 358 345 346 b 401 376 382 346 397 358 b 404 420 404 390 403 406 b 395 509 404 450 399 480 z m 234 712 b 240 714 237 713 239 714 b 268 738 253 721 261 729 b 321 803 286 759 303 781 b 328 815 324 807 326 811 b 319 855 334 829 331 845 b 281 856 309 863 292 864 b 263 837 274 851 268 844 b 220 783 248 820 234 801 b 206 761 215 776 210 769 b 200 739 202 755 200 747 b 234 712 199 719 215 707 z "},"":{"ha":563,"x_min":0,"x_max":0,"o":"m 447 667 b 420 647 435 664 426 657 b 411 621 416 639 413 630 b 326 376 388 550 349 447 b 311 347 323 366 322 353 b 289 378 300 355 295 367 b 152 629 247 453 197 556 b 135 654 147 638 142 647 b 91 663 123 667 106 670 b 70 620 75 656 67 639 b 77 601 72 613 74 607 b 91 577 81 593 86 585 b 214 349 131 511 176 416 b 268 262 230 319 247 289 b 280 227 277 251 279 240 b 287 76 282 177 284 126 b 292 38 288 63 290 51 b 306 11 293 28 298 18 b 360 15 321 -5 346 -3 b 369 44 366 24 369 33 b 366 96 368 61 367 78 b 360 213 364 135 362 174 b 367 260 359 229 361 244 b 487 598 409 359 453 495 b 493 625 489 606 492 615 b 447 667 495 651 472 671 z m 205 743 b 242 756 219 743 228 746 b 256 795 256 766 260 778 b 237 825 252 806 246 817 b 186 832 221 837 204 841 b 156 786 168 823 156 808 b 205 743 157 762 178 743 z m 353 743 b 390 756 367 743 376 746 b 404 795 404 766 409 778 b 385 825 401 806 394 817 b 335 832 370 837 353 841 b 305 786 316 823 304 808 b 353 743 305 762 326 743 z "},"":{"ha":522,"x_min":0,"x_max":0,"o":"m 438 67 b 412 77 430 73 421 75 b 337 81 387 82 362 81 b 186 84 314 82 209 82 b 161 96 177 84 168 86 b 185 145 169 112 176 128 b 284 334 218 208 251 271 b 418 570 330 420 375 483 b 431 602 423 581 428 591 b 393 663 440 634 425 657 b 366 664 384 664 375 664 b 115 661 282 662 199 671 b 89 653 106 660 97 657 b 70 612 74 645 67 629 b 103 581 73 596 86 584 b 127 582 111 580 119 582 b 293 587 176 592 228 589 b 332 584 305 587 317 586 b 324 558 330 574 327 564 b 207 359 285 484 247 432 b 93 138 168 286 131 212 b 77 101 87 126 81 114 b 105 26 67 70 77 44 b 140 12 116 20 127 16 b 403 3 200 -4 342 -1 b 423 8 410 4 417 6 b 439 15 429 9 434 12 b 438 67 458 29 457 54 z m 230 712 b 236 714 232 713 235 714 b 264 738 248 721 257 729 b 316 803 282 759 299 781 b 324 815 319 807 322 811 b 315 855 330 829 326 845 b 277 856 305 863 288 864 b 258 837 270 851 264 844 b 215 783 244 820 230 801 b 201 761 210 776 206 769 b 195 739 198 755 196 747 b 230 712 195 719 210 707 z "},"":{"ha":522,"x_min":0,"x_max":0,"o":"m 438 67 b 412 77 430 73 421 75 b 337 81 387 82 362 81 b 186 84 314 82 209 82 b 161 96 177 84 168 86 b 185 145 169 112 176 128 b 284 334 218 208 251 271 b 418 570 330 420 375 483 b 431 602 423 581 428 591 b 393 663 440 634 425 657 b 366 664 384 664 375 664 b 115 661 282 662 199 671 b 89 653 106 660 97 657 b 70 612 74 645 67 629 b 103 581 73 596 86 584 b 127 582 111 580 119 582 b 293 587 176 592 228 589 b 332 584 305 587 317 586 b 324 558 330 574 327 564 b 207 359 285 484 247 432 b 93 138 168 286 131 212 b 77 101 87 126 81 114 b 105 26 67 70 77 44 b 140 12 116 20 127 16 b 403 3 200 -4 342 -1 b 423 8 410 4 417 6 b 439 15 429 9 434 12 b 438 67 458 29 457 54 z m 230 712 b 236 714 232 713 235 714 b 264 738 248 721 257 729 b 316 803 282 759 299 781 b 324 815 319 807 322 811 b 315 855 330 829 326 845 b 277 856 305 863 288 864 b 258 837 270 851 264 844 b 215 783 244 820 230 801 b 201 761 210 776 206 769 b 195 739 198 755 196 747 b 230 712 195 719 210 707 z "},"":{"ha":522,"x_min":0,"x_max":0,"o":"m 438 67 b 412 77 430 73 421 75 b 337 81 387 82 362 81 b 186 84 314 82 209 82 b 161 96 177 84 168 86 b 185 145 169 112 176 128 b 284 334 218 208 251 271 b 418 570 330 420 375 483 b 431 602 423 581 428 591 b 393 663 440 634 425 657 b 366 664 384 664 375 664 b 115 661 282 662 199 671 b 89 653 106 660 97 657 b 70 612 74 645 67 629 b 103 581 73 596 86 584 b 127 582 111 580 119 582 b 293 587 176 592 228 589 b 332 584 305 587 317 586 b 324 558 330 574 327 564 b 207 359 285 484 247 432 b 93 138 168 286 131 212 b 77 101 87 126 81 114 b 105 26 67 70 77 44 b 140 12 116 20 127 16 b 403 3 200 -4 342 -1 b 423 8 410 4 417 6 b 439 15 429 9 434 12 b 438 67 458 29 457 54 z m 216 725 b 224 713 218 721 221 717 b 264 704 234 702 250 698 b 272 711 267 706 270 708 b 275 713 273 711 274 712 b 293 732 282 718 287 725 b 333 788 306 750 320 769 b 346 811 338 795 342 803 b 351 833 350 818 352 825 b 316 859 351 853 335 865 b 310 856 313 858 310 856 b 282 832 297 849 289 841 b 257 796 274 820 265 808 b 242 825 252 806 247 816 b 228 848 238 833 233 840 b 211 862 224 854 218 859 b 171 843 193 872 175 863 b 171 837 171 840 171 837 b 180 801 171 823 175 812 b 216 725 192 776 204 751 z "},"":{"ha":522,"x_min":0,"x_max":0,"o":"m 438 67 b 412 77 430 73 421 75 b 337 81 387 82 362 81 b 186 84 314 82 209 82 b 161 96 177 84 168 86 b 185 145 169 112 176 128 b 284 334 218 208 251 271 b 418 570 330 420 375 483 b 431 602 423 581 428 591 b 393 663 440 634 425 657 b 366 664 384 664 375 664 b 115 661 282 662 199 671 b 89 653 106 660 97 657 b 70 612 74 645 67 629 b 103 581 73 596 86 584 b 127 582 111 580 119 582 b 293 587 176 592 228 589 b 332 584 305 587 317 586 b 324 558 330 574 327 564 b 207 359 285 484 247 432 b 93 138 168 286 131 212 b 77 101 87 126 81 114 b 105 26 67 70 77 44 b 140 12 116 20 127 16 b 403 3 200 -4 342 -1 b 423 8 410 4 417 6 b 439 15 429 9 434 12 b 438 67 458 29 457 54 z m 216 725 b 224 713 218 721 221 717 b 264 704 234 702 250 698 b 272 711 267 706 270 708 b 275 713 273 711 274 712 b 293 732 282 718 287 725 b 333 788 306 750 320 769 b 346 811 338 795 342 803 b 351 833 350 818 352 825 b 316 859 351 853 335 865 b 310 856 313 858 310 856 b 282 832 297 849 289 841 b 257 796 274 820 265 808 b 242 825 252 806 247 816 b 228 848 238 833 233 840 b 211 862 224 854 218 859 b 171 843 193 872 175 863 b 171 837 171 840 171 837 b 180 801 171 823 175 812 b 216 725 192 776 204 751 z "},"":{"ha":713,"x_min":0,"x_max":0,"o":"m 617 392 b 590 397 609 395 599 397 b 549 398 577 398 563 398 b 308 399 469 398 389 398 b 126 405 247 400 187 403 b 95 402 115 405 105 405 b 70 372 81 397 72 386 b 86 336 68 357 74 345 b 121 325 96 328 108 325 b 231 321 158 323 194 322 b 489 318 317 320 403 318 b 586 319 521 317 554 319 b 619 326 597 319 609 321 b 644 360 634 332 644 343 b 617 392 644 374 634 387 z "},"":{"ha":229,"x_min":0,"x_max":0,"o":"m 159 541 b 150 635 156 571 153 603 b 141 664 149 646 146 656 b 106 683 133 677 121 684 b 72 657 90 681 78 673 b 70 630 69 648 69 639 b 81 517 74 592 78 555 b 92 477 83 503 85 489 b 126 458 100 465 111 457 b 155 485 142 460 151 471 b 159 505 158 491 159 498 b 159 541 159 516 159 528 z "},"":{"ha":229,"x_min":0,"x_max":0,"o":"m 159 541 b 150 635 156 571 153 603 b 141 664 149 646 146 656 b 106 683 133 677 121 684 b 72 657 90 681 78 673 b 70 630 69 648 69 639 b 81 517 74 592 78 555 b 92 477 83 503 85 489 b 126 458 100 465 111 457 b 155 485 142 460 151 471 b 159 505 158 491 159 498 b 159 541 159 516 159 528 z "},"":{"ha":342,"x_min":0,"x_max":0,"o":"m 148 583 b 148 645 148 604 148 624 b 145 669 148 653 147 661 b 110 697 141 685 126 696 b 72 669 93 698 77 687 b 69 652 70 664 69 658 b 70 514 70 606 70 560 b 78 481 70 503 73 492 b 110 458 84 468 95 458 b 141 481 125 458 135 467 b 148 518 147 492 148 505 b 149 583 149 539 149 561 b 148 583 148 583 148 583 z m 272 585 b 271 585 271 585 271 585 b 271 637 271 603 271 620 b 270 661 271 645 271 653 b 233 696 267 681 252 695 b 194 661 214 697 197 682 b 193 654 193 658 193 656 b 195 516 194 608 194 562 b 205 484 195 505 199 493 b 262 484 220 462 248 462 b 271 516 269 494 271 505 b 272 585 272 539 272 562 z "},"":{"ha":342,"x_min":0,"x_max":0,"o":"m 148 583 b 148 645 148 604 148 624 b 145 669 148 653 147 661 b 110 697 141 685 126 696 b 72 669 93 698 77 687 b 69 652 70 664 69 658 b 70 514 70 606 70 560 b 78 481 70 503 73 492 b 110 458 84 468 95 458 b 141 481 125 458 135 467 b 148 518 147 492 148 505 b 149 583 149 539 149 561 b 148 583 148 583 148 583 z m 272 585 b 271 585 271 585 271 585 b 271 637 271 603 271 620 b 270 661 271 645 271 653 b 233 696 267 681 252 695 b 194 661 214 697 197 682 b 193 654 193 658 193 656 b 195 516 194 608 194 562 b 205 484 195 505 199 493 b 262 484 220 462 248 462 b 271 516 269 494 271 505 b 272 585 272 539 272 562 z "},"":{"ha":311,"x_min":0,"x_max":0,"o":"m 239 400 b 207 452 233 420 223 438 b 121 464 181 473 152 480 b 69 386 89 449 69 423 b 152 312 70 344 106 312 b 215 335 176 312 191 318 b 239 400 240 352 247 372 z "},"":{"ha":578,"x_min":0,"x_max":0,"o":"m 491 207 b 458 205 480 213 469 211 b 434 181 448 199 440 190 b 406 137 424 167 415 152 b 379 97 397 124 389 110 b 313 78 361 73 342 68 b 281 98 300 82 290 88 b 248 182 264 117 252 155 b 285 191 261 185 273 188 b 320 206 298 194 310 198 b 336 238 331 214 338 224 b 309 266 334 254 323 263 b 278 268 299 268 288 268 b 247 266 268 268 258 266 b 237 286 240 265 237 279 b 250 306 235 298 238 303 b 296 317 265 310 281 313 b 324 331 307 320 316 324 b 314 385 345 349 340 377 b 283 389 304 388 293 388 b 249 390 272 389 260 385 b 247 437 248 392 247 435 b 295 550 253 479 267 517 b 330 576 305 561 316 571 b 379 570 348 583 364 581 b 399 546 387 563 394 556 b 420 485 410 527 419 507 b 425 462 421 477 422 469 b 460 437 431 446 443 438 b 495 461 476 437 488 446 b 500 491 499 470 501 480 b 439 623 494 541 476 587 b 290 646 398 663 342 671 b 241 609 271 637 255 624 b 186 518 216 582 198 552 b 164 390 175 490 168 420 b 147 372 163 380 158 373 b 103 366 132 370 118 369 b 69 328 83 363 69 347 b 100 291 70 312 82 295 b 127 289 109 289 118 290 b 148 290 134 289 141 290 b 154 287 150 290 153 288 b 156 258 158 281 157 264 b 144 248 155 251 150 248 b 110 244 132 246 121 247 b 78 208 91 240 79 225 b 107 169 78 190 89 175 b 135 166 116 167 125 166 b 165 166 145 167 156 173 b 176 122 173 160 172 132 b 193 85 182 110 187 97 b 226 40 201 68 212 53 b 451 60 295 -29 396 -20 b 494 130 466 82 480 106 b 506 159 499 139 502 149 b 509 176 507 164 508 170 b 491 207 509 189 504 201 z "},"":{"ha":749,"x_min":0,"x_max":0,"o":"m 679 143 b 603 259 674 195 647 233 b 536 285 582 271 559 279 b 497 334 497 295 502 289 b 496 375 496 347 496 361 b 505 388 496 381 499 386 b 525 393 511 390 518 391 b 609 438 556 402 585 416 b 640 537 639 465 652 497 b 475 588 618 608 533 635 b 445 551 463 578 452 566 b 426 500 436 535 430 518 b 420 469 424 490 422 480 b 405 454 419 460 414 455 b 354 448 388 452 371 450 b 338 461 343 447 338 451 b 335 502 336 475 336 489 b 297 577 332 532 320 558 b 184 621 265 606 227 621 b 73 477 95 620 56 537 b 123 404 82 447 98 423 b 215 370 150 384 181 373 b 249 368 226 369 238 369 b 263 355 257 367 262 362 b 265 293 267 334 265 314 b 254 278 265 285 261 280 b 234 272 247 276 241 274 b 128 209 194 260 159 238 b 101 79 86 171 78 132 b 221 23 122 26 166 6 b 314 113 267 38 295 71 b 333 179 324 134 328 157 b 377 219 341 216 341 216 b 397 220 384 219 391 220 b 397 221 397 220 397 220 b 411 221 402 221 407 221 b 435 203 429 221 430 220 b 454 133 441 180 447 156 b 493 53 463 105 476 78 b 583 16 515 21 546 10 b 679 143 644 26 685 81 z m 522 523 b 560 518 534 535 550 533 b 560 502 564 513 564 507 b 515 474 547 487 530 479 b 504 479 507 473 504 476 b 522 523 506 495 511 511 z m 257 457 b 248 448 257 451 253 448 b 173 467 221 447 196 452 b 150 503 160 475 152 487 b 181 541 148 523 160 540 b 248 513 207 543 230 533 b 254 497 251 509 253 503 b 257 470 256 488 256 479 b 257 457 257 466 258 461 z m 252 182 b 226 120 247 160 241 138 b 188 98 216 107 201 99 b 180 102 186 99 182 99 b 177 145 168 113 166 133 b 241 189 195 164 216 179 b 252 182 247 192 253 188 z m 417 307 b 379 299 410 295 392 302 b 365 297 374 298 370 298 b 345 315 347 296 345 297 b 344 353 344 327 344 340 b 361 369 345 365 347 368 b 364 370 362 370 363 370 b 387 371 372 370 380 371 b 417 348 413 375 416 374 b 417 307 418 334 422 318 z m 599 130 b 589 106 599 121 596 112 b 551 111 574 91 562 92 b 525 174 539 130 531 152 b 523 202 523 183 514 196 b 551 195 531 209 542 199 b 578 179 561 191 570 185 b 599 130 593 166 600 150 z "}}}
